<svg xmlns="http://www.w3.org/2000/svg" viewBox="0 0 500 500" width="100%" height="100%" style="border-radius: 8px; overflow: hidden; background: #000;">
  <defs>
    <!-- Sky Gradients -->
    <linearGradient id="day-sky" x1="0%" y1="0%" x2="0%" y2="100%">
      <stop offset="0%" stop-color="#2D74DB" />
      <stop offset="40%" stop-color="#69A2EB" />
      <stop offset="100%" stop-color="#C5E2FA" />
    </linearGradient>
    <linearGradient id="sunset-sky" x1="0%" y1="0%" x2="0%" y2="100%">
      <stop offset="0%" stop-color="#261047" />
      <stop offset="35%" stop-color="#702A58" />
      <stop offset="70%" stop-color="#D15C54" />
      <stop offset="100%" stop-color="#FFB366" />
    </linearGradient>
    <linearGradient id="night-sky" x1="0%" y1="0%" x2="0%" y2="100%">
      <stop offset="0%" stop-color="#020611" />
      <stop offset="50%" stop-color="#081424" />
      <stop offset="100%" stop-color="#12243A" />
    </linearGradient>

    <!-- Mountain Day Gradients -->
    <linearGradient id="m1-day" x1="0%" y1="0%" x2="0%" y2="100%"><stop offset="0%" stop-color="#E1EEF7"/><stop offset="100%" stop-color="#A4C2DF"/></linearGradient>
    <linearGradient id="m2-day" x1="0%" y1="0%" x2="0%" y2="100%"><stop offset="0%" stop-color="#ECF5FC"/><stop offset="100%" stop-color="#B8D0E8"/></linearGradient>
    <linearGradient id="m3-day" x1="0%" y1="0%" x2="0%" y2="100%"><stop offset="0%" stop-color="#F2FBFF"/><stop offset="100%" stop-color="#C8E0F5"/></linearGradient>
    <linearGradient id="m4-day" x1="0%" y1="0%" x2="0%" y2="100%"><stop offset="0%" stop-color="#FFFFFF"/><stop offset="100%" stop-color="#DEEEFA"/></linearGradient>

    <!-- Mountain Sunset Gradients -->
    <linearGradient id="m1-sunset" x1="0%" y1="0%" x2="0%" y2="100%"><stop offset="0%" stop-color="#5C3647"/><stop offset="100%" stop-color="#2A172A"/></linearGradient>
    <linearGradient id="m2-sunset" x1="0%" y1="0%" x2="0%" y2="100%"><stop offset="0%" stop-color="#7D4050"/><stop offset="100%" stop-color="#3A1C30"/></linearGradient>
    <linearGradient id="m3-sunset" x1="0%" y1="0%" x2="0%" y2="100%"><stop offset="0%" stop-color="#A65858"/><stop offset="100%" stop-color="#542636"/></linearGradient>
    <linearGradient id="m4-sunset" x1="0%" y1="0%" x2="0%" y2="100%"><stop offset="0%" stop-color="#D68270"/><stop offset="100%" stop-color="#733342"/></linearGradient>

    <!-- Mountain Night Gradients -->
    <linearGradient id="m1-night" x1="0%" y1="0%" x2="0%" y2="100%"><stop offset="0%" stop-color="#0B1526"/><stop offset="100%" stop-color="#050A12"/></linearGradient>
    <linearGradient id="m2-night" x1="0%" y1="0%" x2="0%" y2="100%"><stop offset="0%" stop-color="#101E32"/><stop offset="100%" stop-color="#080F1B"/></linearGradient>
    <linearGradient id="m3-night" x1="0%" y1="0%" x2="0%" y2="100%"><stop offset="0%" stop-color="#172840"/><stop offset="100%" stop-color="#0A1424"/></linearGradient>
    <linearGradient id="m4-night" x1="0%" y1="0%" x2="0%" y2="100%"><stop offset="0%" stop-color="#1E3350"/><stop offset="100%" stop-color="#0E1B2D"/></linearGradient>

    <!-- Tree Colors -->
    <linearGradient id="tree-day" x1="0%" y1="0%" x2="0%" y2="100%"><stop offset="0%" stop-color="#3A4D41"/><stop offset="100%" stop-color="#14211A"/></linearGradient>
    <linearGradient id="tree-sunset" x1="0%" y1="0%" x2="0%" y2="100%"><stop offset="0%" stop-color="#261316"/><stop offset="100%" stop-color="#12080B"/></linearGradient>
    <linearGradient id="tree-night" x1="0%" y1="0%" x2="0%" y2="100%"><stop offset="0%" stop-color="#0A0E14"/><stop offset="100%" stop-color="#030508"/></linearGradient>

    <!-- Celestial Gradients & Filters -->
    <radialGradient id="sun-grad" cx="50%" cy="50%" r="50%">
      <stop offset="0%" stop-color="#FFFFFF" />
      <stop offset="20%" stop-color="#FFF5D6" />
      <stop offset="60%" stop-color="#FFC14D" />
      <stop offset="100%" stop-color="#FF9500" stop-opacity="0" />
    </radialGradient>
    <radialGradient id="moon-grad" cx="40%" cy="40%" r="60%">
      <stop offset="0%" stop-color="#FFFFFF" />
      <stop offset="70%" stop-color="#E2E8F0" />
      <stop offset="100%" stop-color="#94A3B8" />
    </radialGradient>
    <filter id="moon-craters">
      <feTurbulence type="fractalNoise" baseFrequency="0.8" numOctaves="3" result="noise" />
      <feColorMatrix type="matrix" values="1 0 0 0 0   0 1 0 0 0   0 0 1 0 0   0 0 0 0.3 0" in="noise" result="coloredNoise" />
      <feComposite operator="in" in="coloredNoise" in2="SourceGraphic" />
    </filter>

    <style>
      :root { --cyc: 24s; }
      .anim-day { animation: fadeDay var(--cyc) infinite linear; }
      .anim-sunset { animation: fadeSunset var(--cyc) infinite linear; }
      .anim-night { animation: fadeNight var(--cyc) infinite linear; }
      .anim-stars { animation: fadeStars var(--cyc) infinite linear; }
      .celestial-pivot { animation: rotateSky var(--cyc) infinite linear; transform-origin: 250px 380px; }
      
      .snow { animation: drop 6s infinite linear; fill: #FFF; opacity: 0.6; }
      .snow-lg { animation: drop 4s infinite linear; fill: #FFF; opacity: 0.9; }
      .snow-sm { animation: drop 8s infinite linear; fill: #FFF; opacity: 0.4; }
      .d1 { animation-delay: -1s; }
      .d2 { animation-delay: -2s; }
      .d3 { animation-delay: -3.5s; }
      .d4 { animation-delay: -5s; }

      @keyframes fadeDay {
        0%, 15% { opacity: 0; }
        28%, 38% { opacity: 1; }
        48%, 100% { opacity: 0; }
      }
      @keyframes fadeSunset {
        0%, 5% { opacity: 1; }
        22%, 35% { opacity: 0; }
        43%, 55% { opacity: 1; }
        72%, 90% { opacity: 0; }
        95%, 100% { opacity: 1; }
      }
      @keyframes fadeNight {
        0%, 45% { opacity: 0; }
        62%, 92% { opacity: 1; }
        100% { opacity: 0; }
      }
      @keyframes fadeStars {
        0%, 50% { opacity: 0; }
        65%, 85% { opacity: 1; }
        100% { opacity: 0; }
      }
      @keyframes rotateSky {
        0% { transform: rotate(-90deg); }
        100% { transform: rotate(270deg); }
      }
      @keyframes drop {
        0% { transform: translate(0, -50px); }
        100% { transform: translate(-30px, 550px); }
      }
    </style>
  </defs>

  <!-- BACKGROUND SKIES -->
  <rect width="500" height="500" fill="url(#night-sky)" />
  
  <g class="anim-stars">
    <circle cx="61" cy="289" r="1.5174259502693255" fill="#FFF" opacity="0.6083222591850694" /><circle cx="219" cy="189" r="0.5896437574755327" fill="#FFF" opacity="0.7885259524340831" /><circle cx="6" cy="215" r="1.5690301935170756" fill="#FFF" opacity="0.4633233223863992" /><circle cx="491" cy="185" r="1.3262606379318798" fill="#FFF" opacity="0.8972243866014749" /><circle cx="362" cy="78" r="1.0661332885099801" fill="#FFF" opacity="0.8402771824080351" /><circle cx="494" cy="138" r="1.3006860602696164" fill="#FFF" opacity="0.9517705941416602" /><circle cx="396" cy="247" r="1.10433590312486" fill="#FFF" opacity="0.8954407590524534" /><circle cx="303" cy="137" r="0.9189959578754536" fill="#FFF" opacity="0.5472971014562145" /><circle cx="478" cy="44" r="0.8626067239502112" fill="#FFF" opacity="0.6704812001162623" /><circle cx="384" cy="237" r="1.240804538081819" fill="#FFF" opacity="0.8009130822672961" /><circle cx="172" cy="14" r="1.1425984547006987" fill="#FFF" opacity="0.5950085007332557" /><circle cx="249" cy="108" r="0.9612724560289239" fill="#FFF" opacity="0.5550114453152069" /><circle cx="143" cy="141" r="1.222528336295459" fill="#FFF" opacity="0.7099763510289605" /><circle cx="97" cy="43" r="0.813762865484484" fill="#FFF" opacity="0.6438568748023116" /><circle cx="284" cy="123" r="1.3977921412804801" fill="#FFF" opacity="0.7875417398445714" /><circle cx="251" cy="229" r="1.5308127285720128" fill="#FFF" opacity="0.455832010332803" /><circle cx="113" cy="207" r="1.3993233018837623" fill="#FFF" opacity="0.5837236180780531" /><circle cx="297" cy="188" r="1.1152386353873822" fill="#FFF" opacity="0.7185531586874607" /><circle cx="217" cy="281" r="0.9300286863547091" fill="#FFF" opacity="0.8217129653114614" /><circle cx="138" cy="156" r="0.826824779061224" fill="#FFF" opacity="0.4723935308513835" /><circle cx="98" cy="161" r="0.6554211636315687" fill="#FFF" opacity="0.72151837923025" /><circle cx="390" cy="94" r="0.7490032649137082" fill="#FFF" opacity="0.8431627921053704" /><circle cx="141" cy="268" r="1.2758279626659923" fill="#FFF" opacity="0.9883063782775079" /><circle cx="426" cy="99" r="0.8851204022446879" fill="#FFF" opacity="0.6165286414896318" /><circle cx="154" cy="7" r="1.4204240314243406" fill="#FFF" opacity="0.475949775908789" /><circle cx="23" cy="27" r="1.219366656838191" fill="#FFF" opacity="0.8184504357461166" /><circle cx="64" cy="251" r="0.6333639408240889" fill="#FFF" opacity="0.4073592420253048" /><circle cx="145" cy="240" r="1.1223284711883175" fill="#FFF" opacity="0.6044235595361754" /><circle cx="494" cy="26" r="0.8282219076408643" fill="#FFF" opacity="0.9170337787765079" /><circle cx="58" cy="33" r="1.0209196749275216" fill="#FFF" opacity="0.4444493021533839" /><circle cx="322" cy="27" r="0.6972451090362434" fill="#FFF" opacity="0.8866852457650285" /><circle cx="485" cy="155" r="0.610735180915099" fill="#FFF" opacity="0.5489145731260697" /><circle cx="285" cy="213" r="1.2882129466158516" fill="#FFF" opacity="0.8744444979060517" /><circle cx="115" cy="267" r="0.9944914339905142" fill="#FFF" opacity="0.9451026265742823" /><circle cx="152" cy="219" r="0.8969943176151685" fill="#FFF" opacity="0.7726163926432892" /><circle cx="312" cy="50" r="1.7318672604229914" fill="#FFF" opacity="0.5246727434941308" /><circle cx="108" cy="135" r="1.3585565783496476" fill="#FFF" opacity="0.49423425602852633" /><circle cx="88" cy="282" r="0.5975843295715183" fill="#FFF" opacity="0.40160543356173145" /><circle cx="230" cy="240" r="0.8786370757403359" fill="#FFF" opacity="0.5388857407336155" /><circle cx="361" cy="144" r="1.4138838255218324" fill="#FFF" opacity="0.672418795844226" /><circle cx="351" cy="119" r="1.7010843578273134" fill="#FFF" opacity="0.8726968159880388" /><circle cx="320" cy="101" r="1.052680655935475" fill="#FFF" opacity="0.7267374272263472" /><circle cx="331" cy="76" r="1.680934878776388" fill="#FFF" opacity="0.8959786957900358" /><circle cx="36" cy="30" r="0.7156996259869421" fill="#FFF" opacity="0.5845670875685396" /><circle cx="383" cy="291" r="1.6975502876579296" fill="#FFF" opacity="0.6634920692042425" /><circle cx="239" cy="155" r="1.4096537904684325" fill="#FFF" opacity="0.9656057444464244" /><circle cx="256" cy="276" r="1.1419337851486095" fill="#FFF" opacity="0.4482651111395806" /><circle cx="20" cy="221" r="1.4548941002713" fill="#FFF" opacity="0.7622281845675464" /><circle cx="13" cy="46" r="0.7976017404383751" fill="#FFF" opacity="0.8045790203033027" /><circle cx="440" cy="294" r="1.2632598112227185" fill="#FFF" opacity="0.4124472737293202" /><circle cx="391" cy="137" r="1.249121079983571" fill="#FFF" opacity="0.8578654025030232" /><circle cx="89" cy="240" r="1.1746529932838852" fill="#FFF" opacity="0.6653376426521218" /><circle cx="142" cy="92" r="1.7960291174123326" fill="#FFF" opacity="0.6615309922462018" /><circle cx="416" cy="251" r="1.7597718068854147" fill="#FFF" opacity="0.682006236976211" /><circle cx="209" cy="170" r="0.917375732743543" fill="#FFF" opacity="0.4627599307495345" /><circle cx="82" cy="168" r="1.0351386167241317" fill="#FFF" opacity="0.6972814125786027" /><circle cx="339" cy="205" r="1.5576358451593644" fill="#FFF" opacity="0.7300579653830698" /><circle cx="232" cy="45" r="0.9088723043212183" fill="#FFF" opacity="0.5939642717655969" /><circle cx="496" cy="206" r="1.6243837592674428" fill="#FFF" opacity="0.8949563219612205" /><circle cx="0" cy="277" r="1.1005692484767873" fill="#FFF" opacity="0.43252245122603716" /><circle cx="265" cy="185" r="1.3094240343822248" fill="#FFF" opacity="0.6990958614293132" /><circle cx="226" cy="26" r="0.764625709855356" fill="#FFF" opacity="0.729531783451199" /><circle cx="474" cy="147" r="1.0695509235940919" fill="#FFF" opacity="0.8189500174733033" /><circle cx="62" cy="14" r="1.7650908605682027" fill="#FFF" opacity="0.765323000249179" /><circle cx="122" cy="81" r="0.9039751799113356" fill="#FFF" opacity="0.40820467867963645" /><circle cx="208" cy="47" r="0.7921108572925201" fill="#FFF" opacity="0.9048434089702213" /><circle cx="58" cy="236" r="1.731178965067163" fill="#FFF" opacity="0.7886258132702553" /><circle cx="78" cy="255" r="1.7124489779143357" fill="#FFF" opacity="0.5751169361570716" /><circle cx="361" cy="139" r="1.040137445815959" fill="#FFF" opacity="0.6894997461747138" /><circle cx="241" cy="124" r="1.0938224145520077" fill="#FFF" opacity="0.48678518109136526" /><circle cx="97" cy="260" r="1.470180309140117" fill="#FFF" opacity="0.48190500675451875" /><circle cx="35" cy="141" r="1.5044776724801066" fill="#FFF" opacity="0.9126474279833245" /><circle cx="174" cy="259" r="0.8473244619869762" fill="#FFF" opacity="0.40153915561514636" /><circle cx="371" cy="152" r="1.5887186993883478" fill="#FFF" opacity="0.7479540303300425" /><circle cx="337" cy="250" r="1.6248387731103155" fill="#FFF" opacity="0.6679284358259168" /><circle cx="247" cy="176" r="0.9321719424239742" fill="#FFF" opacity="0.8577236065719875" /><circle cx="193" cy="233" r="1.7127079324298393" fill="#FFF" opacity="0.9217610099404411" /><circle cx="357" cy="122" r="1.2433369345803715" fill="#FFF" opacity="0.5401374676347359" /><circle cx="397" cy="210" r="0.5567414888264925" fill="#FFF" opacity="0.8468230909391176" /><circle cx="361" cy="195" r="1.001902378238277" fill="#FFF" opacity="0.7982132976907208" /><circle cx="420" cy="77" r="1.1439272445013506" fill="#FFF" opacity="0.42221176680734573" /><circle cx="257" cy="169" r="1.63061040737088" fill="#FFF" opacity="0.924514224432585" /><circle cx="225" cy="51" r="1.18373641284983" fill="#FFF" opacity="0.6741568446845454" /><circle cx="369" cy="73" r="1.0329722056702737" fill="#FFF" opacity="0.7928687958566403" /><circle cx="79" cy="38" r="1.1103377812801516" fill="#FFF" opacity="0.9815221783445304" /><circle cx="173" cy="203" r="1.3447876483530545" fill="#FFF" opacity="0.9110591754104148" /><circle cx="436" cy="273" r="0.9940122167794516" fill="#FFF" opacity="0.5899966923600398" /><circle cx="367" cy="249" r="1.6340979226180972" fill="#FFF" opacity="0.421539459902612" /><circle cx="35" cy="120" r="1.3205093219110329" fill="#FFF" opacity="0.952557459268178" /><circle cx="116" cy="46" r="1.0641629135000634" fill="#FFF" opacity="0.4590658758299188" /><circle cx="324" cy="51" r="1.0767821171602177" fill="#FFF" opacity="0.8164006976759408" /><circle cx="462" cy="14" r="0.5597882592803766" fill="#FFF" opacity="0.8776860790973271" /><circle cx="150" cy="183" r="0.9872934167079093" fill="#FFF" opacity="0.4873418774196391" /><circle cx="271" cy="210" r="1.2357064804907179" fill="#FFF" opacity="0.875511684328572" /><circle cx="87" cy="89" r="0.6026588558579931" fill="#FFF" opacity="0.9225037591869129" /><circle cx="317" cy="123" r="1.1469674280783364" fill="#FFF" opacity="0.7498942783912318" /><circle cx="118" cy="236" r="1.329276020304639" fill="#FFF" opacity="0.6757422995060386" /><circle cx="341" cy="4" r="1.6685810912104173" fill="#FFF" opacity="0.6791519533151809" /><circle cx="147" cy="279" r="0.705368308693323" fill="#FFF" opacity="0.6650378701622887" /><circle cx="176" cy="300" r="0.8889005238609038" fill="#FFF" opacity="0.9772174436940652" /><circle cx="353" cy="128" r="1.0938865564681226" fill="#FFF" opacity="0.5812730023229882" /><circle cx="196" cy="247" r="0.6386492476490692" fill="#FFF" opacity="0.6288185785945775" /><circle cx="183" cy="294" r="0.8846341072805199" fill="#FFF" opacity="0.8195674477304402" /><circle cx="11" cy="202" r="0.856824494231696" fill="#FFF" opacity="0.7395574101734195" /><circle cx="351" cy="25" r="1.6838020398343236" fill="#FFF" opacity="0.8471032924803821" /><circle cx="426" cy="146" r="1.5084632734843952" fill="#FFF" opacity="0.5380710345822498" /><circle cx="410" cy="180" r="0.7847059006065371" fill="#FFF" opacity="0.514079193566253" /><circle cx="128" cy="70" r="1.3167225347929679" fill="#FFF" opacity="0.9420422224437808" /><circle cx="330" cy="20" r="0.9016127491384269" fill="#FFF" opacity="0.6644939140976869" /><circle cx="296" cy="186" r="1.45206769832101" fill="#FFF" opacity="0.4540800254477314" /><circle cx="151" cy="167" r="1.471725124419883" fill="#FFF" opacity="0.505384042266584" /><circle cx="67" cy="276" r="1.6393987757186328" fill="#FFF" opacity="0.6195145183690743" /><circle cx="256" cy="139" r="1.5796144054376167" fill="#FFF" opacity="0.5541820507379573" /><circle cx="422" cy="246" r="1.7575992990168559" fill="#FFF" opacity="0.5770848695034951" /><circle cx="445" cy="173" r="1.5455023001858639" fill="#FFF" opacity="0.6809988333116173" /><circle cx="38" cy="72" r="1.4803969409797362" fill="#FFF" opacity="0.5353688174194422" /><circle cx="346" cy="203" r="1.7574506714900422" fill="#FFF" opacity="0.8827525864123371" /><circle cx="187" cy="46" r="1.5278865591656188" fill="#FFF" opacity="0.40835119306054074" /><circle cx="274" cy="63" r="1.091221836054037" fill="#FFF" opacity="0.8036970291242522" /><circle cx="344" cy="134" r="1.259928119147816" fill="#FFF" opacity="0.8934503807360645" />
  </g>

  <rect class="anim-sunset" width="500" height="500" fill="url(#sunset-sky)" />
  <rect class="anim-day" width="500" height="500" fill="url(#day-sky)" />

  <!-- CELESTIAL BODIES (Sun & Moon revolving) -->
  <g class="celestial-pivot">
    <!-- SUN -->
    <g transform="translate(0, -280)">
      <circle cx="250" cy="380" r="80" fill="url(#sun-grad)" />
      <circle cx="250" cy="380" r="30" fill="#FFFFFF" />
    </g>
    <!-- MOON -->
    <g transform="translate(0, 280)">
      <!-- Moon realistic body -->
      <circle cx="250" cy="380" r="22" fill="url(#moon-grad)" />
      <circle cx="250" cy="380" r="22" fill="#000" filter="url(#moon-craters)" opacity="0.6" mix-blend-mode="multiply" />
      <!-- Moon outward subtle glow -->
      <circle cx="250" cy="380" r="40" fill="#E2E8F0" opacity="0.1" />
    </g>
  </g>

  <!-- MOUNTAINS -->
  <!-- Layer 1 -->
  <path d="M -100.0 250.0 L -95.3 251.9 L -90.6 253.2 L -85.9 252.6 L -81.2 250.0 L -76.6 251.5 L -71.9 249.3 L -67.2 248.0 L -62.5 243.9 L -57.8 238.1 L -53.1 235.1 L -48.4 227.9 L -43.8 225.6 L -39.1 222.0 L -34.4 220.4 L -29.7 211.7 L -25.0 205.4 L -20.3 199.3 L -15.6 196.1 L -10.9 195.0 L -6.2 189.3 L -1.6 190.4 L 3.1 187.5 L 7.8 185.2 L 12.5 184.7 L 17.2 189.3 L 21.9 192.3 L 26.6 192.2 L 31.2 193.2 L 35.9 197.1 L 40.6 196.8 L 45.3 197.2 L 50.0 198.0 L 54.7 195.4 L 59.4 195.1 L 64.1 188.7 L 68.8 184.8 L 73.4 179.0 L 78.1 172.6 L 82.8 164.5 L 87.5 158.9 L 92.2 153.7 L 96.9 147.7 L 101.6 142.1 L 106.2 132.3 L 110.9 127.9 L 115.6 124.6 L 120.3 123.9 L 125.0 126.2 L 129.7 124.8 L 134.4 118.4 L 139.1 117.4 L 143.8 116.2 L 148.4 107.4 L 153.1 102.8 L 157.8 95.9 L 162.5 93.7 L 167.2 91.3 L 171.9 93.0 L 176.6 97.6 L 181.2 100.9 L 185.9 100.8 L 190.6 97.7 L 195.3 98.5 L 200.0 100.0 L 206.2 92.4 L 212.5 90.8 L 218.8 90.9 L 225.0 92.6 L 231.2 94.8 L 237.5 90.2 L 243.8 92.2 L 250.0 93.9 L 256.2 98.8 L 262.5 97.2 L 268.8 99.5 L 275.0 96.9 L 281.2 98.0 L 287.5 106.0 L 293.8 113.9 L 300.0 118.8 L 306.2 120.2 L 312.5 119.2 L 318.8 121.4 L 325.0 123.2 L 331.2 114.4 L 337.5 108.8 L 343.8 106.6 L 350.0 102.4 L 356.2 94.9 L 362.5 92.7 L 368.8 90.7 L 375.0 89.5 L 381.2 91.2 L 387.5 93.5 L 393.8 92.6 L 400.0 85.5 L 406.2 90.3 L 412.5 90.0 L 418.8 88.6 L 425.0 90.5 L 431.2 98.0 L 437.5 105.6 L 443.8 109.5 L 450.0 117.8 L 456.2 126.2 L 462.5 128.8 L 468.8 141.4 L 475.0 148.9 L 481.2 162.4 L 487.5 178.7 L 493.8 191.4 L 500.0 202.2 L 506.2 205.8 L 512.5 207.9 L 518.8 213.0 L 525.0 222.9 L 531.2 224.3 L 537.5 222.1 L 543.8 223.6 L 550.0 224.5 L 556.2 237.5 L 562.5 246.6 L 568.8 251.0 L 575.0 255.1 L 581.2 258.9 L 587.5 269.5 L 593.8 273.5 L 600.0 280.0 L 600.0 550 L -100.0 550 Z" class="anim-night" fill="url(#m1-night)" />
  <path d="M -100.0 250.0 L -95.3 251.9 L -90.6 253.2 L -85.9 252.6 L -81.2 250.0 L -76.6 251.5 L -71.9 249.3 L -67.2 248.0 L -62.5 243.9 L -57.8 238.1 L -53.1 235.1 L -48.4 227.9 L -43.8 225.6 L -39.1 222.0 L -34.4 220.4 L -29.7 211.7 L -25.0 205.4 L -20.3 199.3 L -15.6 196.1 L -10.9 195.0 L -6.2 189.3 L -1.6 190.4 L 3.1 187.5 L 7.8 185.2 L 12.5 184.7 L 17.2 189.3 L 21.9 192.3 L 26.6 192.2 L 31.2 193.2 L 35.9 197.1 L 40.6 196.8 L 45.3 197.2 L 50.0 198.0 L 54.7 195.4 L 59.4 195.1 L 64.1 188.7 L 68.8 184.8 L 73.4 179.0 L 78.1 172.6 L 82.8 164.5 L 87.5 158.9 L 92.2 153.7 L 96.9 147.7 L 101.6 142.1 L 106.2 132.3 L 110.9 127.9 L 115.6 124.6 L 120.3 123.9 L 125.0 126.2 L 129.7 124.8 L 134.4 118.4 L 139.1 117.4 L 143.8 116.2 L 148.4 107.4 L 153.1 102.8 L 157.8 95.9 L 162.5 93.7 L 167.2 91.3 L 171.9 93.0 L 176.6 97.6 L 181.2 100.9 L 185.9 100.8 L 190.6 97.7 L 195.3 98.5 L 200.0 100.0 L 206.2 92.4 L 212.5 90.8 L 218.8 90.9 L 225.0 92.6 L 231.2 94.8 L 237.5 90.2 L 243.8 92.2 L 250.0 93.9 L 256.2 98.8 L 262.5 97.2 L 268.8 99.5 L 275.0 96.9 L 281.2 98.0 L 287.5 106.0 L 293.8 113.9 L 300.0 118.8 L 306.2 120.2 L 312.5 119.2 L 318.8 121.4 L 325.0 123.2 L 331.2 114.4 L 337.5 108.8 L 343.8 106.6 L 350.0 102.4 L 356.2 94.9 L 362.5 92.7 L 368.8 90.7 L 375.0 89.5 L 381.2 91.2 L 387.5 93.5 L 393.8 92.6 L 400.0 85.5 L 406.2 90.3 L 412.5 90.0 L 418.8 88.6 L 425.0 90.5 L 431.2 98.0 L 437.5 105.6 L 443.8 109.5 L 450.0 117.8 L 456.2 126.2 L 462.5 128.8 L 468.8 141.4 L 475.0 148.9 L 481.2 162.4 L 487.5 178.7 L 493.8 191.4 L 500.0 202.2 L 506.2 205.8 L 512.5 207.9 L 518.8 213.0 L 525.0 222.9 L 531.2 224.3 L 537.5 222.1 L 543.8 223.6 L 550.0 224.5 L 556.2 237.5 L 562.5 246.6 L 568.8 251.0 L 575.0 255.1 L 581.2 258.9 L 587.5 269.5 L 593.8 273.5 L 600.0 280.0 L 600.0 550 L -100.0 550 Z" class="anim-sunset" fill="url(#m1-sunset)" />
  <path d="M -100.0 250.0 L -95.3 251.9 L -90.6 253.2 L -85.9 252.6 L -81.2 250.0 L -76.6 251.5 L -71.9 249.3 L -67.2 248.0 L -62.5 243.9 L -57.8 238.1 L -53.1 235.1 L -48.4 227.9 L -43.8 225.6 L -39.1 222.0 L -34.4 220.4 L -29.7 211.7 L -25.0 205.4 L -20.3 199.3 L -15.6 196.1 L -10.9 195.0 L -6.2 189.3 L -1.6 190.4 L 3.1 187.5 L 7.8 185.2 L 12.5 184.7 L 17.2 189.3 L 21.9 192.3 L 26.6 192.2 L 31.2 193.2 L 35.9 197.1 L 40.6 196.8 L 45.3 197.2 L 50.0 198.0 L 54.7 195.4 L 59.4 195.1 L 64.1 188.7 L 68.8 184.8 L 73.4 179.0 L 78.1 172.6 L 82.8 164.5 L 87.5 158.9 L 92.2 153.7 L 96.9 147.7 L 101.6 142.1 L 106.2 132.3 L 110.9 127.9 L 115.6 124.6 L 120.3 123.9 L 125.0 126.2 L 129.7 124.8 L 134.4 118.4 L 139.1 117.4 L 143.8 116.2 L 148.4 107.4 L 153.1 102.8 L 157.8 95.9 L 162.5 93.7 L 167.2 91.3 L 171.9 93.0 L 176.6 97.6 L 181.2 100.9 L 185.9 100.8 L 190.6 97.7 L 195.3 98.5 L 200.0 100.0 L 206.2 92.4 L 212.5 90.8 L 218.8 90.9 L 225.0 92.6 L 231.2 94.8 L 237.5 90.2 L 243.8 92.2 L 250.0 93.9 L 256.2 98.8 L 262.5 97.2 L 268.8 99.5 L 275.0 96.9 L 281.2 98.0 L 287.5 106.0 L 293.8 113.9 L 300.0 118.8 L 306.2 120.2 L 312.5 119.2 L 318.8 121.4 L 325.0 123.2 L 331.2 114.4 L 337.5 108.8 L 343.8 106.6 L 350.0 102.4 L 356.2 94.9 L 362.5 92.7 L 368.8 90.7 L 375.0 89.5 L 381.2 91.2 L 387.5 93.5 L 393.8 92.6 L 400.0 85.5 L 406.2 90.3 L 412.5 90.0 L 418.8 88.6 L 425.0 90.5 L 431.2 98.0 L 437.5 105.6 L 443.8 109.5 L 450.0 117.8 L 456.2 126.2 L 462.5 128.8 L 468.8 141.4 L 475.0 148.9 L 481.2 162.4 L 487.5 178.7 L 493.8 191.4 L 500.0 202.2 L 506.2 205.8 L 512.5 207.9 L 518.8 213.0 L 525.0 222.9 L 531.2 224.3 L 537.5 222.1 L 543.8 223.6 L 550.0 224.5 L 556.2 237.5 L 562.5 246.6 L 568.8 251.0 L 575.0 255.1 L 581.2 258.9 L 587.5 269.5 L 593.8 273.5 L 600.0 280.0 L 600.0 550 L -100.0 550 Z" class="anim-day" fill="url(#m1-day)" />

  <!-- Layer 2 -->
  <path d="M -100.0 320.0 L -92.5 315.7 L -85.0 316.0 L -77.5 316.1 L -70.0 316.9 L -62.5 316.6 L -55.0 317.4 L -47.5 314.7 L -40.0 315.3 L -32.5 305.5 L -25.0 299.5 L -17.5 298.8 L -10.0 291.8 L -2.5 282.6 L 5.0 274.3 L 12.5 272.5 L 20.0 265.3 L 27.5 254.9 L 35.0 243.8 L 42.5 236.2 L 50.0 235.2 L 57.5 236.0 L 65.0 229.2 L 72.5 226.8 L 80.0 219.3 L 87.5 211.1 L 95.0 195.9 L 102.5 191.5 L 110.0 180.7 L 117.5 171.1 L 125.0 156.2 L 132.5 135.5 L 140.0 119.7 L 147.5 122.0 L 155.0 124.6 L 162.5 119.5 L 170.0 118.7 L 177.5 115.6 L 185.0 114.0 L 192.5 114.9 L 200.0 122.3 L 207.5 123.8 L 215.0 127.1 L 222.5 137.1 L 230.0 139.8 L 237.5 148.0 L 245.0 159.8 L 252.5 169.3 L 260.0 174.6 L 267.5 170.8 L 275.0 167.7 L 282.5 167.9 L 290.0 169.2 L 297.5 168.0 L 305.0 159.8 L 312.5 164.4 L 320.0 161.5 L 327.5 165.5 L 335.0 168.6 L 342.5 167.3 L 350.0 162.6 L 357.5 157.4 L 365.0 157.4 L 372.5 152.2 L 380.0 150.0 L 383.4 153.1 L 386.9 153.0 L 390.3 154.9 L 393.8 156.3 L 397.2 161.1 L 400.6 165.6 L 404.1 169.1 L 407.5 170.9 L 410.9 175.4 L 414.4 182.9 L 417.8 187.0 L 421.2 190.6 L 424.7 195.8 L 428.1 200.9 L 431.6 209.4 L 435.0 215.5 L 438.4 221.0 L 441.9 228.8 L 445.3 239.8 L 448.8 247.6 L 452.2 250.5 L 455.6 256.3 L 459.1 260.1 L 462.5 266.0 L 465.9 271.1 L 469.4 275.6 L 472.8 281.5 L 476.2 286.2 L 479.7 289.2 L 483.1 294.0 L 486.6 296.8 L 490.0 302.2 L 493.4 305.3 L 496.9 305.8 L 500.3 305.1 L 503.8 306.2 L 507.2 308.5 L 510.6 310.2 L 514.1 311.4 L 517.5 311.8 L 520.9 312.6 L 524.4 314.0 L 527.8 312.1 L 531.2 309.5 L 534.7 307.5 L 538.1 305.4 L 541.6 307.6 L 545.0 306.8 L 548.4 306.2 L 551.9 307.6 L 555.3 309.4 L 558.8 309.8 L 562.2 311.7 L 565.6 315.4 L 569.1 318.9 L 572.5 323.2 L 575.9 328.7 L 579.4 333.0 L 582.8 334.7 L 586.2 337.8 L 589.7 341.9 L 593.1 347.2 L 596.6 354.5 L 600.0 360.0 L 600.0 550 L -100.0 550 Z" class="anim-night" fill="url(#m2-night)" />
  <path d="M -100.0 320.0 L -92.5 315.7 L -85.0 316.0 L -77.5 316.1 L -70.0 316.9 L -62.5 316.6 L -55.0 317.4 L -47.5 314.7 L -40.0 315.3 L -32.5 305.5 L -25.0 299.5 L -17.5 298.8 L -10.0 291.8 L -2.5 282.6 L 5.0 274.3 L 12.5 272.5 L 20.0 265.3 L 27.5 254.9 L 35.0 243.8 L 42.5 236.2 L 50.0 235.2 L 57.5 236.0 L 65.0 229.2 L 72.5 226.8 L 80.0 219.3 L 87.5 211.1 L 95.0 195.9 L 102.5 191.5 L 110.0 180.7 L 117.5 171.1 L 125.0 156.2 L 132.5 135.5 L 140.0 119.7 L 147.5 122.0 L 155.0 124.6 L 162.5 119.5 L 170.0 118.7 L 177.5 115.6 L 185.0 114.0 L 192.5 114.9 L 200.0 122.3 L 207.5 123.8 L 215.0 127.1 L 222.5 137.1 L 230.0 139.8 L 237.5 148.0 L 245.0 159.8 L 252.5 169.3 L 260.0 174.6 L 267.5 170.8 L 275.0 167.7 L 282.5 167.9 L 290.0 169.2 L 297.5 168.0 L 305.0 159.8 L 312.5 164.4 L 320.0 161.5 L 327.5 165.5 L 335.0 168.6 L 342.5 167.3 L 350.0 162.6 L 357.5 157.4 L 365.0 157.4 L 372.5 152.2 L 380.0 150.0 L 383.4 153.1 L 386.9 153.0 L 390.3 154.9 L 393.8 156.3 L 397.2 161.1 L 400.6 165.6 L 404.1 169.1 L 407.5 170.9 L 410.9 175.4 L 414.4 182.9 L 417.8 187.0 L 421.2 190.6 L 424.7 195.8 L 428.1 200.9 L 431.6 209.4 L 435.0 215.5 L 438.4 221.0 L 441.9 228.8 L 445.3 239.8 L 448.8 247.6 L 452.2 250.5 L 455.6 256.3 L 459.1 260.1 L 462.5 266.0 L 465.9 271.1 L 469.4 275.6 L 472.8 281.5 L 476.2 286.2 L 479.7 289.2 L 483.1 294.0 L 486.6 296.8 L 490.0 302.2 L 493.4 305.3 L 496.9 305.8 L 500.3 305.1 L 503.8 306.2 L 507.2 308.5 L 510.6 310.2 L 514.1 311.4 L 517.5 311.8 L 520.9 312.6 L 524.4 314.0 L 527.8 312.1 L 531.2 309.5 L 534.7 307.5 L 538.1 305.4 L 541.6 307.6 L 545.0 306.8 L 548.4 306.2 L 551.9 307.6 L 555.3 309.4 L 558.8 309.8 L 562.2 311.7 L 565.6 315.4 L 569.1 318.9 L 572.5 323.2 L 575.9 328.7 L 579.4 333.0 L 582.8 334.7 L 586.2 337.8 L 589.7 341.9 L 593.1 347.2 L 596.6 354.5 L 600.0 360.0 L 600.0 550 L -100.0 550 Z" class="anim-sunset" fill="url(#m2-sunset)" />
  <path d="M -100.0 320.0 L -92.5 315.7 L -85.0 316.0 L -77.5 316.1 L -70.0 316.9 L -62.5 316.6 L -55.0 317.4 L -47.5 314.7 L -40.0 315.3 L -32.5 305.5 L -25.0 299.5 L -17.5 298.8 L -10.0 291.8 L -2.5 282.6 L 5.0 274.3 L 12.5 272.5 L 20.0 265.3 L 27.5 254.9 L 35.0 243.8 L 42.5 236.2 L 50.0 235.2 L 57.5 236.0 L 65.0 229.2 L 72.5 226.8 L 80.0 219.3 L 87.5 211.1 L 95.0 195.9 L 102.5 191.5 L 110.0 180.7 L 117.5 171.1 L 125.0 156.2 L 132.5 135.5 L 140.0 119.7 L 147.5 122.0 L 155.0 124.6 L 162.5 119.5 L 170.0 118.7 L 177.5 115.6 L 185.0 114.0 L 192.5 114.9 L 200.0 122.3 L 207.5 123.8 L 215.0 127.1 L 222.5 137.1 L 230.0 139.8 L 237.5 148.0 L 245.0 159.8 L 252.5 169.3 L 260.0 174.6 L 267.5 170.8 L 275.0 167.7 L 282.5 167.9 L 290.0 169.2 L 297.5 168.0 L 305.0 159.8 L 312.5 164.4 L 320.0 161.5 L 327.5 165.5 L 335.0 168.6 L 342.5 167.3 L 350.0 162.6 L 357.5 157.4 L 365.0 157.4 L 372.5 152.2 L 380.0 150.0 L 383.4 153.1 L 386.9 153.0 L 390.3 154.9 L 393.8 156.3 L 397.2 161.1 L 400.6 165.6 L 404.1 169.1 L 407.5 170.9 L 410.9 175.4 L 414.4 182.9 L 417.8 187.0 L 421.2 190.6 L 424.7 195.8 L 428.1 200.9 L 431.6 209.4 L 435.0 215.5 L 438.4 221.0 L 441.9 228.8 L 445.3 239.8 L 448.8 247.6 L 452.2 250.5 L 455.6 256.3 L 459.1 260.1 L 462.5 266.0 L 465.9 271.1 L 469.4 275.6 L 472.8 281.5 L 476.2 286.2 L 479.7 289.2 L 483.1 294.0 L 486.6 296.8 L 490.0 302.2 L 493.4 305.3 L 496.9 305.8 L 500.3 305.1 L 503.8 306.2 L 507.2 308.5 L 510.6 310.2 L 514.1 311.4 L 517.5 311.8 L 520.9 312.6 L 524.4 314.0 L 527.8 312.1 L 531.2 309.5 L 534.7 307.5 L 538.1 305.4 L 541.6 307.6 L 545.0 306.8 L 548.4 306.2 L 551.9 307.6 L 555.3 309.4 L 558.8 309.8 L 562.2 311.7 L 565.6 315.4 L 569.1 318.9 L 572.5 323.2 L 575.9 328.7 L 579.4 333.0 L 582.8 334.7 L 586.2 337.8 L 589.7 341.9 L 593.1 347.2 L 596.6 354.5 L 600.0 360.0 L 600.0 550 L -100.0 550 Z" class="anim-day" fill="url(#m2-day)" />

  <!-- Layer 3 -->
  <path d="M -100.0 380.0 L -89.1 375.7 L -78.1 369.1 L -67.2 359.6 L -56.2 354.3 L -45.3 356.1 L -34.4 358.1 L -23.4 355.1 L -12.5 345.0 L -1.6 340.0 L 9.4 329.0 L 20.3 314.8 L 31.2 307.7 L 42.2 285.9 L 53.1 265.3 L 64.1 250.8 L 75.0 240.2 L 85.9 245.0 L 96.9 258.5 L 107.8 264.5 L 118.8 265.8 L 129.7 265.0 L 140.6 261.8 L 151.6 261.2 L 162.5 264.8 L 173.4 266.1 L 184.4 263.1 L 195.3 259.8 L 206.2 255.7 L 217.2 250.0 L 228.1 245.5 L 239.1 228.5 L 250.0 220.0 L 260.9 214.1 L 271.9 215.6 L 282.8 223.2 L 293.8 224.0 L 304.7 227.5 L 315.6 223.9 L 326.6 230.9 L 337.5 237.2 L 348.4 243.3 L 359.4 243.6 L 370.3 254.4 L 381.2 263.7 L 392.2 273.7 L 403.1 289.9 L 414.1 298.8 L 425.0 314.2 L 435.9 317.5 L 446.9 324.2 L 457.8 336.7 L 468.8 342.3 L 479.7 347.0 L 490.6 346.5 L 501.6 349.9 L 512.5 347.0 L 523.4 363.3 L 534.4 372.6 L 545.3 379.1 L 556.2 390.6 L 567.2 393.2 L 578.1 400.1 L 589.1 406.6 L 600.0 420.0 L 600.0 550 L -100.0 550 Z" class="anim-night" fill="url(#m3-night)" />
  <path d="M -100.0 380.0 L -89.1 375.7 L -78.1 369.1 L -67.2 359.6 L -56.2 354.3 L -45.3 356.1 L -34.4 358.1 L -23.4 355.1 L -12.5 345.0 L -1.6 340.0 L 9.4 329.0 L 20.3 314.8 L 31.2 307.7 L 42.2 285.9 L 53.1 265.3 L 64.1 250.8 L 75.0 240.2 L 85.9 245.0 L 96.9 258.5 L 107.8 264.5 L 118.8 265.8 L 129.7 265.0 L 140.6 261.8 L 151.6 261.2 L 162.5 264.8 L 173.4 266.1 L 184.4 263.1 L 195.3 259.8 L 206.2 255.7 L 217.2 250.0 L 228.1 245.5 L 239.1 228.5 L 250.0 220.0 L 260.9 214.1 L 271.9 215.6 L 282.8 223.2 L 293.8 224.0 L 304.7 227.5 L 315.6 223.9 L 326.6 230.9 L 337.5 237.2 L 348.4 243.3 L 359.4 243.6 L 370.3 254.4 L 381.2 263.7 L 392.2 273.7 L 403.1 289.9 L 414.1 298.8 L 425.0 314.2 L 435.9 317.5 L 446.9 324.2 L 457.8 336.7 L 468.8 342.3 L 479.7 347.0 L 490.6 346.5 L 501.6 349.9 L 512.5 347.0 L 523.4 363.3 L 534.4 372.6 L 545.3 379.1 L 556.2 390.6 L 567.2 393.2 L 578.1 400.1 L 589.1 406.6 L 600.0 420.0 L 600.0 550 L -100.0 550 Z" class="anim-sunset" fill="url(#m3-sunset)" />
  <path d="M -100.0 380.0 L -89.1 375.7 L -78.1 369.1 L -67.2 359.6 L -56.2 354.3 L -45.3 356.1 L -34.4 358.1 L -23.4 355.1 L -12.5 345.0 L -1.6 340.0 L 9.4 329.0 L 20.3 314.8 L 31.2 307.7 L 42.2 285.9 L 53.1 265.3 L 64.1 250.8 L 75.0 240.2 L 85.9 245.0 L 96.9 258.5 L 107.8 264.5 L 118.8 265.8 L 129.7 265.0 L 140.6 261.8 L 151.6 261.2 L 162.5 264.8 L 173.4 266.1 L 184.4 263.1 L 195.3 259.8 L 206.2 255.7 L 217.2 250.0 L 228.1 245.5 L 239.1 228.5 L 250.0 220.0 L 260.9 214.1 L 271.9 215.6 L 282.8 223.2 L 293.8 224.0 L 304.7 227.5 L 315.6 223.9 L 326.6 230.9 L 337.5 237.2 L 348.4 243.3 L 359.4 243.6 L 370.3 254.4 L 381.2 263.7 L 392.2 273.7 L 403.1 289.9 L 414.1 298.8 L 425.0 314.2 L 435.9 317.5 L 446.9 324.2 L 457.8 336.7 L 468.8 342.3 L 479.7 347.0 L 490.6 346.5 L 501.6 349.9 L 512.5 347.0 L 523.4 363.3 L 534.4 372.6 L 545.3 379.1 L 556.2 390.6 L 567.2 393.2 L 578.1 400.1 L 589.1 406.6 L 600.0 420.0 L 600.0 550 L -100.0 550 Z" class="anim-day" fill="url(#m3-day)" />

  <!-- Layer 4 -->
  <path d="M -100.0 430.0 L -82.8 432.3 L -65.6 438.2 L -48.4 439.9 L -31.2 434.0 L -14.1 436.0 L 3.1 428.4 L 20.3 415.9 L 37.5 407.9 L 54.7 416.6 L 71.9 422.5 L 89.1 422.3 L 106.2 424.2 L 123.4 421.0 L 140.6 407.9 L 157.8 404.9 L 175.0 401.2 L 192.2 405.6 L 209.4 400.9 L 226.6 390.8 L 243.8 388.7 L 260.9 380.0 L 278.1 361.6 L 295.3 352.7 L 312.5 350.6 L 329.7 354.3 L 346.9 348.5 L 364.1 337.3 L 381.2 331.0 L 398.4 317.9 L 415.6 312.9 L 432.8 295.8 L 450.0 280.0 L 454.7 284.9 L 459.4 288.5 L 464.1 293.8 L 468.8 300.1 L 473.4 309.0 L 478.1 317.3 L 482.8 324.1 L 487.5 330.9 L 492.2 339.4 L 496.9 348.6 L 501.6 357.9 L 506.2 366.7 L 510.9 373.1 L 515.6 380.9 L 520.3 389.7 L 525.0 397.3 L 529.7 402.6 L 534.4 410.8 L 539.1 417.0 L 543.8 420.9 L 548.4 427.1 L 553.1 433.1 L 557.8 441.3 L 562.5 448.3 L 567.2 452.8 L 571.9 456.0 L 576.6 463.0 L 581.2 469.0 L 585.9 470.5 L 590.6 472.8 L 595.3 475.2 L 600.0 480.0 L 600.0 550 L -100.0 550 Z" class="anim-night" fill="url(#m4-night)" />
  <path d="M -100.0 430.0 L -82.8 432.3 L -65.6 438.2 L -48.4 439.9 L -31.2 434.0 L -14.1 436.0 L 3.1 428.4 L 20.3 415.9 L 37.5 407.9 L 54.7 416.6 L 71.9 422.5 L 89.1 422.3 L 106.2 424.2 L 123.4 421.0 L 140.6 407.9 L 157.8 404.9 L 175.0 401.2 L 192.2 405.6 L 209.4 400.9 L 226.6 390.8 L 243.8 388.7 L 260.9 380.0 L 278.1 361.6 L 295.3 352.7 L 312.5 350.6 L 329.7 354.3 L 346.9 348.5 L 364.1 337.3 L 381.2 331.0 L 398.4 317.9 L 415.6 312.9 L 432.8 295.8 L 450.0 280.0 L 454.7 284.9 L 459.4 288.5 L 464.1 293.8 L 468.8 300.1 L 473.4 309.0 L 478.1 317.3 L 482.8 324.1 L 487.5 330.9 L 492.2 339.4 L 496.9 348.6 L 501.6 357.9 L 506.2 366.7 L 510.9 373.1 L 515.6 380.9 L 520.3 389.7 L 525.0 397.3 L 529.7 402.6 L 534.4 410.8 L 539.1 417.0 L 543.8 420.9 L 548.4 427.1 L 553.1 433.1 L 557.8 441.3 L 562.5 448.3 L 567.2 452.8 L 571.9 456.0 L 576.6 463.0 L 581.2 469.0 L 585.9 470.5 L 590.6 472.8 L 595.3 475.2 L 600.0 480.0 L 600.0 550 L -100.0 550 Z" class="anim-sunset" fill="url(#m4-sunset)" />
  <path d="M -100.0 430.0 L -82.8 432.3 L -65.6 438.2 L -48.4 439.9 L -31.2 434.0 L -14.1 436.0 L 3.1 428.4 L 20.3 415.9 L 37.5 407.9 L 54.7 416.6 L 71.9 422.5 L 89.1 422.3 L 106.2 424.2 L 123.4 421.0 L 140.6 407.9 L 157.8 404.9 L 175.0 401.2 L 192.2 405.6 L 209.4 400.9 L 226.6 390.8 L 243.8 388.7 L 260.9 380.0 L 278.1 361.6 L 295.3 352.7 L 312.5 350.6 L 329.7 354.3 L 346.9 348.5 L 364.1 337.3 L 381.2 331.0 L 398.4 317.9 L 415.6 312.9 L 432.8 295.8 L 450.0 280.0 L 454.7 284.9 L 459.4 288.5 L 464.1 293.8 L 468.8 300.1 L 473.4 309.0 L 478.1 317.3 L 482.8 324.1 L 487.5 330.9 L 492.2 339.4 L 496.9 348.6 L 501.6 357.9 L 506.2 366.7 L 510.9 373.1 L 515.6 380.9 L 520.3 389.7 L 525.0 397.3 L 529.7 402.6 L 534.4 410.8 L 539.1 417.0 L 543.8 420.9 L 548.4 427.1 L 553.1 433.1 L 557.8 441.3 L 562.5 448.3 L 567.2 452.8 L 571.9 456.0 L 576.6 463.0 L 581.2 469.0 L 585.9 470.5 L 590.6 472.8 L 595.3 475.2 L 600.0 480.0 L 600.0 550 L -100.0 550 Z" class="anim-day" fill="url(#m4-day)" />

  <!-- TREES -->
  <g class="anim-night" fill="url(#tree-night)"><path d="M 338.6883498520871 446.4160028834077 L 336.3 380.6 L 337.7 384.2 L 331.4 387.8 L 335.8 391.4 L 325.1 395.0 L 333.3 398.6 L 319.2 402.2 L 330.9 405.7 L 314.3 409.3 L 328.9 412.9 L 309.4 416.5 L 327.0 420.1 L 304.2 423.7 L 324.9 427.3 L 299.1 430.9 L 322.8 434.5 L 294.2 438.0 L 320.9 441.6 L 289.7 445.2 L 319.1 448.8 L 332.7071496358315 446.4160028834077 L 344.66955006834263 446.4160028834077 L 358.3 448.8 L 387.7 445.2 L 356.5 441.6 L 383.2 438.0 L 354.5 434.5 L 378.3 430.9 L 352.5 427.3 L 373.1 423.7 L 350.4 420.1 L 368.0 416.5 L 348.4 412.9 L 363.0 409.3 L 346.5 405.7 L 358.1 402.2 L 344.1 398.6 L 352.2 395.0 L 341.6 391.4 L 346.0 387.8 L 339.6 384.2 L 341.1 380.6 Z" class="pine" />
<path d="M 487.7963821942988 474.1854356218186 L 484.6 385.5 L 486.5 390.3 L 476.0 395.2 L 483.1 400.0 L 468.4 404.8 L 480.0 409.7 L 461.8 414.5 L 477.4 419.4 L 454.4 424.2 L 474.4 429.0 L 448.7 433.9 L 472.2 438.7 L 442.1 443.5 L 469.5 448.4 L 435.1 453.2 L 466.7 458.1 L 427.6 462.9 L 463.7 467.7 L 419.8 472.6 L 460.6 477.4 L 479.7324745226624 474.1854356218186 L 495.8602898659352 474.1854356218186 L 515.0 477.4 L 555.8 472.6 L 511.9 467.7 L 548.0 462.9 L 508.9 458.1 L 540.5 453.2 L 506.1 448.4 L 533.5 443.5 L 503.4 438.7 L 526.9 433.9 L 501.2 429.0 L 521.2 424.2 L 498.2 419.4 L 513.8 414.5 L 495.6 409.7 L 507.2 404.8 L 492.5 400.0 L 499.6 395.2 L 489.1 390.3 L 491.0 385.5 Z" class="pine" />
<path d="M 218.76629162459602 437.09611207912803 L 216.7 379.0 L 217.9 382.2 L 212.0 385.3 L 216.0 388.5 L 206.4 391.7 L 213.8 394.8 L 201.0 398.0 L 211.6 401.2 L 196.9 404.3 L 210.0 407.5 L 193.0 410.7 L 208.5 413.9 L 188.3 417.0 L 206.6 420.2 L 183.2 423.4 L 204.5 426.5 L 178.8 429.7 L 202.8 432.9 L 173.4 436.0 L 200.6 439.2 L 213.48408321866143 437.09611207912803 L 224.04850003053062 437.09611207912803 L 236.9 439.2 L 264.1 436.0 L 234.7 432.9 L 258.7 429.7 L 233.0 426.5 L 254.3 423.4 L 231.0 420.2 L 249.3 417.0 L 229.1 413.9 L 244.5 410.7 L 227.5 407.5 L 240.6 404.3 L 225.9 401.2 L 236.6 398.0 L 223.7 394.8 L 231.2 391.7 L 221.5 388.5 L 225.6 385.3 L 219.6 382.2 L 220.9 379.0 Z" class="pine" />
<path d="M 343.3096621008702 437.97125327978307 L 341.2 379.1 L 342.5 382.4 L 337.0 385.6 L 340.8 388.8 L 333.2 392.0 L 339.3 395.2 L 328.9 398.4 L 337.6 401.6 L 324.2 404.8 L 335.7 408.0 L 318.6 411.2 L 333.4 414.4 L 314.7 417.6 L 331.9 420.9 L 310.1 424.1 L 330.0 427.3 L 305.0 430.5 L 328.0 433.7 L 300.8 436.9 L 326.3 440.1 L 337.96181810488645 437.97125327978307 L 348.6575060968539 437.97125327978307 L 360.3 440.1 L 385.8 436.9 L 358.6 433.7 L 381.6 430.5 L 356.6 427.3 L 376.5 424.1 L 354.7 420.9 L 371.9 417.6 L 353.2 414.4 L 368.0 411.2 L 351.0 408.0 L 362.4 404.8 L 349.1 401.6 L 357.7 398.4 L 347.4 395.2 L 353.4 392.0 L 345.8 388.8 L 349.6 385.6 L 344.2 382.4 L 345.4 379.1 Z" class="pine" />
<path d="M 246.96367126563592 439.5187551662751 L 244.8 379.4 L 246.1 382.7 L 239.5 386.0 L 244.0 389.3 L 235.7 392.5 L 242.5 395.8 L 230.2 399.1 L 240.3 402.4 L 224.7 405.6 L 238.1 408.9 L 220.7 412.2 L 236.4 415.5 L 215.9 418.8 L 234.5 422.0 L 211.7 425.3 L 232.9 428.6 L 205.8 431.9 L 230.5 435.1 L 200.8 438.4 L 228.5 441.7 L 241.49976462816528 439.5187551662751 L 252.42757790310657 439.5187551662751 L 265.4 441.7 L 293.1 438.4 L 263.4 435.1 L 288.2 431.9 L 261.1 428.6 L 282.2 425.3 L 259.4 422.0 L 278.0 418.8 L 257.5 415.5 L 273.3 412.2 L 255.9 408.9 L 269.2 405.6 L 253.7 402.4 L 263.7 399.1 L 251.5 395.8 L 258.2 392.5 L 249.9 389.3 L 254.4 386.0 L 247.8 382.7 L 249.1 379.4 Z" class="pine" />
<path d="M 114.56707101638469 487.8669077881328 L 110.9 387.9 L 113.1 393.3 L 102.9 398.8 L 109.9 404.2 L 93.6 409.7 L 106.2 415.1 L 84.8 420.6 L 102.7 426.1 L 74.9 431.5 L 98.7 437.0 L 66.4 442.4 L 95.3 447.9 L 56.5 453.3 L 91.4 458.8 L 46.9 464.2 L 87.5 469.7 L 38.3 475.1 L 84.1 480.6 L 29.4 486.0 L 80.5 491.5 L 105.47705293227473 487.8669077881328 L 123.65708910049464 487.8669077881328 L 148.6 491.5 L 199.8 486.0 L 145.1 480.6 L 190.8 475.1 L 141.6 469.7 L 182.2 464.2 L 137.8 458.8 L 172.6 453.3 L 133.9 447.9 L 162.8 442.4 L 130.4 437.0 L 154.2 431.5 L 126.5 426.1 L 144.3 420.6 L 122.9 415.1 L 135.5 409.7 L 119.2 404.2 L 126.2 398.8 L 116.0 393.3 L 118.2 387.9 Z" class="pine" />
<path d="M 428.5073516495641 463.8297560488663 L 425.6 383.7 L 427.3 388.0 L 417.9 392.4 L 424.3 396.8 L 410.6 401.2 L 421.3 405.5 L 404.1 409.9 L 418.8 414.3 L 398.3 418.6 L 416.4 423.0 L 392.4 427.4 L 414.1 431.8 L 385.5 436.1 L 411.3 440.5 L 378.2 444.9 L 408.4 449.3 L 371.5 453.6 L 405.7 458.0 L 364.6 462.4 L 402.9 466.7 L 421.2201199458991 463.8297560488663 L 435.7945833532291 463.8297560488663 L 454.1 466.7 L 492.4 462.4 L 451.3 458.0 L 485.5 453.6 L 448.6 449.3 L 478.9 444.9 L 445.7 440.5 L 471.5 436.1 L 442.9 431.8 L 464.6 427.4 L 440.6 423.0 L 458.7 418.6 L 438.3 414.3 L 452.9 409.9 L 435.7 405.5 L 446.4 401.2 L 432.8 396.8 L 439.1 392.4 L 429.7 388.0 L 431.4 383.7 Z" class="pine" />
<path d="M 21.841011086957337 442.8582520690522 L 19.6 380.0 L 20.9 383.4 L 14.9 386.9 L 19.1 390.3 L 10.2 393.7 L 17.2 397.1 L 5.0 400.6 L 15.1 404.0 L 0.7 407.4 L 13.4 410.9 L -3.9 414.3 L 11.6 417.7 L -9.5 421.1 L 9.3 424.6 L -15.1 428.0 L 7.1 431.4 L -19.2 434.9 L 5.4 438.3 L -24.2 441.7 L 3.4 445.1 L 16.126642181778422 442.8582520690522 L 27.555379992136253 442.8582520690522 L 40.2 445.1 L 67.8 441.7 L 38.3 438.3 L 62.9 434.9 L 36.6 431.4 L 58.8 428.0 L 34.4 424.6 L 53.1 421.1 L 32.1 417.7 L 47.6 414.3 L 30.3 410.9 L 43.0 407.4 L 28.6 404.0 L 38.7 400.6 L 26.5 397.1 L 33.5 393.7 L 24.6 390.3 L 28.7 386.9 L 22.8 383.4 L 24.1 380.0 Z" class="pine" />
<path d="M 204.5180864157042 436.5467511611528 L 202.4 378.9 L 203.7 382.0 L 197.9 385.2 L 201.9 388.3 L 192.3 391.5 L 199.6 394.6 L 187.4 397.8 L 197.7 400.9 L 182.3 404.1 L 195.6 407.2 L 176.8 410.3 L 193.4 413.5 L 171.5 416.6 L 191.3 419.8 L 167.1 422.9 L 189.5 426.1 L 163.4 429.2 L 188.1 432.4 L 159.0 435.5 L 186.3 438.6 L 199.27708007861773 436.5467511611528 L 209.75909275279068 436.5467511611528 L 222.7 438.6 L 250.0 435.5 L 221.0 432.4 L 245.6 429.2 L 219.5 426.1 L 242.0 422.9 L 217.7 419.8 L 237.5 416.6 L 215.6 413.5 L 232.2 410.3 L 213.4 407.2 L 226.7 404.1 L 211.4 400.9 L 221.6 397.8 L 209.4 394.6 L 216.7 391.5 L 207.2 388.3 L 211.2 385.2 L 205.4 382.0 L 206.6 378.9 Z" class="pine" />
<path d="M 440.8618933073165 496.2744270776085 L 437.0 389.3 L 439.3 395.2 L 428.5 401.0 L 435.9 406.8 L 418.8 412.7 L 432.0 418.5 L 409.9 424.3 L 428.5 430.2 L 400.8 436.0 L 424.8 441.8 L 393.1 447.7 L 421.8 453.5 L 385.4 459.3 L 418.7 465.2 L 376.9 471.0 L 415.3 476.8 L 370.0 482.7 L 412.5 488.5 L 361.9 494.3 L 409.3 500.2 L 431.14131127649586 496.2744270776085 L 450.58247533813716 496.2744270776085 L 472.4 500.2 L 519.8 494.3 L 469.2 488.5 L 511.7 482.7 L 466.4 476.8 L 504.8 471.0 L 463.0 465.2 L 496.3 459.3 L 460.0 453.5 L 488.6 447.7 L 456.9 441.8 L 481.0 436.0 L 453.2 430.2 L 471.8 424.3 L 449.7 418.5 L 462.9 412.7 L 445.8 406.8 L 453.2 401.0 L 442.4 395.2 L 444.8 389.3 Z" class="pine" />
<path d="M 198.33100133432401 433.2035784962807 L 196.3 378.3 L 197.5 381.3 L 191.9 384.3 L 195.8 387.3 L 188.2 390.3 L 194.3 393.3 L 183.4 396.3 L 192.4 399.3 L 179.9 402.3 L 191.0 405.3 L 175.6 408.3 L 189.2 411.2 L 171.0 414.2 L 187.4 417.2 L 167.4 420.2 L 186.0 423.2 L 162.7 426.2 L 184.1 429.2 L 158.9 432.2 L 182.6 435.2 L 193.34073294710296 433.2035784962807 L 203.32126972154506 433.2035784962807 L 214.1 435.2 L 237.8 432.2 L 212.6 429.2 L 234.0 426.2 L 210.7 423.2 L 229.2 420.2 L 209.3 417.2 L 225.7 414.2 L 207.4 411.2 L 221.1 408.3 L 205.7 405.3 L 216.8 402.3 L 204.3 399.3 L 213.2 396.3 L 202.4 393.3 L 208.5 390.3 L 200.9 387.3 L 204.8 384.3 L 199.1 381.3 L 200.3 378.3 Z" class="pine" />
<path d="M 7.153702083858878 450.32830913505114 L 4.6 381.3 L 6.1 385.1 L -0.3 388.8 L 4.2 392.6 L -5.5 396.4 L 2.1 400.1 L -11.8 403.9 L -0.4 407.7 L -17.1 411.4 L -2.6 415.2 L -23.4 419.0 L -5.1 422.7 L -29.9 426.5 L -7.7 430.2 L -34.9 434.0 L -9.7 437.8 L -39.5 441.5 L -11.5 445.3 L -44.0 449.1 L -13.3 452.8 L 0.8790788987300422 450.32830913505114 L 13.428325268987713 450.32830913505114 L 27.6 452.8 L 58.3 449.1 L 25.8 445.3 L 53.8 441.5 L 24.0 437.8 L 49.2 434.0 L 22.0 430.2 L 44.2 426.5 L 19.4 422.7 L 37.7 419.0 L 16.9 415.2 L 31.4 411.4 L 14.7 407.7 L 26.1 403.9 L 12.2 400.1 L 19.8 396.4 L 10.1 392.6 L 14.6 388.8 L 8.2 385.1 L 9.7 381.3 Z" class="pine" />
<path d="M 519.950227394973 447.99682749761473 L 517.5 380.9 L 519.0 384.6 L 511.7 388.2 L 516.6 391.9 L 505.5 395.5 L 514.2 399.2 L 499.6 402.9 L 511.8 406.5 L 493.5 410.2 L 509.4 413.8 L 486.9 417.5 L 506.7 421.2 L 482.2 424.8 L 504.8 428.5 L 477.8 432.1 L 503.1 435.8 L 473.2 439.5 L 501.3 443.1 L 468.6 446.8 L 499.4 450.4 L 513.8504653326519 447.99682749761473 L 526.0499894572941 447.99682749761473 L 540.5 450.4 L 571.3 446.8 L 538.6 443.1 L 566.7 439.5 L 536.8 435.8 L 562.1 432.1 L 535.1 428.5 L 557.7 424.8 L 533.2 421.2 L 553.0 417.5 L 530.5 413.8 L 546.4 410.2 L 528.1 406.5 L 540.3 402.9 L 525.7 399.2 L 534.4 395.5 L 523.3 391.9 L 528.2 388.2 L 520.9 384.6 L 522.4 380.9 Z" class="pine" />
<path d="M 284.5435742422103 437.4371632725203 L 282.4 379.1 L 283.7 382.2 L 277.2 385.4 L 281.6 388.6 L 271.9 391.8 L 279.5 395.0 L 267.8 398.2 L 277.8 401.3 L 262.8 404.5 L 275.8 407.7 L 257.5 410.9 L 273.7 414.1 L 253.5 417.3 L 272.1 420.5 L 248.1 423.6 L 270.0 426.8 L 242.3 430.0 L 267.7 433.2 L 238.4 436.4 L 266.1 439.6 L 279.23578699677125 437.4371632725203 L 289.85136148764934 437.4371632725203 L 303.0 439.6 L 330.7 436.4 L 301.4 433.2 L 326.8 430.0 L 299.1 426.8 L 321.0 423.6 L 296.9 420.5 L 315.5 417.3 L 295.4 414.1 L 311.6 410.9 L 293.2 407.7 L 306.3 404.5 L 291.2 401.3 L 301.3 398.2 L 289.6 395.0 L 297.2 391.8 L 287.5 388.6 L 291.9 385.4 L 285.4 382.2 L 286.7 379.1 Z" class="pine" />
<path d="M 148.4569119731354 474.1877829480327 L 145.2 385.5 L 147.2 390.3 L 136.5 395.2 L 143.7 400.0 L 129.6 404.8 L 140.9 409.7 L 121.6 414.5 L 137.7 419.4 L 115.7 424.2 L 135.4 429.0 L 107.9 433.9 L 132.2 438.7 L 100.2 443.5 L 129.1 448.4 L 94.2 453.2 L 126.8 458.1 L 86.1 462.9 L 123.5 467.7 L 77.7 472.6 L 120.2 477.4 L 140.39282825203293 474.1877829480327 L 156.52099569423785 474.1877829480327 L 176.8 477.4 L 219.2 472.6 L 173.4 467.7 L 210.8 462.9 L 170.2 458.1 L 202.7 453.2 L 167.8 448.4 L 196.7 443.5 L 164.7 438.7 L 189.1 433.9 L 161.5 429.0 L 181.2 424.2 L 159.2 419.4 L 175.3 414.5 L 156.0 409.7 L 167.3 404.8 L 153.2 400.0 L 160.4 395.2 L 149.7 390.3 L 151.7 385.5 Z" class="pine" />
</g>
  <g class="anim-sunset" fill="url(#tree-sunset)"><path d="M 338.6883498520871 446.4160028834077 L 336.3 380.6 L 337.7 384.2 L 331.4 387.8 L 335.8 391.4 L 325.1 395.0 L 333.3 398.6 L 319.2 402.2 L 330.9 405.7 L 314.3 409.3 L 328.9 412.9 L 309.4 416.5 L 327.0 420.1 L 304.2 423.7 L 324.9 427.3 L 299.1 430.9 L 322.8 434.5 L 294.2 438.0 L 320.9 441.6 L 289.7 445.2 L 319.1 448.8 L 332.7071496358315 446.4160028834077 L 344.66955006834263 446.4160028834077 L 358.3 448.8 L 387.7 445.2 L 356.5 441.6 L 383.2 438.0 L 354.5 434.5 L 378.3 430.9 L 352.5 427.3 L 373.1 423.7 L 350.4 420.1 L 368.0 416.5 L 348.4 412.9 L 363.0 409.3 L 346.5 405.7 L 358.1 402.2 L 344.1 398.6 L 352.2 395.0 L 341.6 391.4 L 346.0 387.8 L 339.6 384.2 L 341.1 380.6 Z" class="pine" />
<path d="M 487.7963821942988 474.1854356218186 L 484.6 385.5 L 486.5 390.3 L 476.0 395.2 L 483.1 400.0 L 468.4 404.8 L 480.0 409.7 L 461.8 414.5 L 477.4 419.4 L 454.4 424.2 L 474.4 429.0 L 448.7 433.9 L 472.2 438.7 L 442.1 443.5 L 469.5 448.4 L 435.1 453.2 L 466.7 458.1 L 427.6 462.9 L 463.7 467.7 L 419.8 472.6 L 460.6 477.4 L 479.7324745226624 474.1854356218186 L 495.8602898659352 474.1854356218186 L 515.0 477.4 L 555.8 472.6 L 511.9 467.7 L 548.0 462.9 L 508.9 458.1 L 540.5 453.2 L 506.1 448.4 L 533.5 443.5 L 503.4 438.7 L 526.9 433.9 L 501.2 429.0 L 521.2 424.2 L 498.2 419.4 L 513.8 414.5 L 495.6 409.7 L 507.2 404.8 L 492.5 400.0 L 499.6 395.2 L 489.1 390.3 L 491.0 385.5 Z" class="pine" />
<path d="M 218.76629162459602 437.09611207912803 L 216.7 379.0 L 217.9 382.2 L 212.0 385.3 L 216.0 388.5 L 206.4 391.7 L 213.8 394.8 L 201.0 398.0 L 211.6 401.2 L 196.9 404.3 L 210.0 407.5 L 193.0 410.7 L 208.5 413.9 L 188.3 417.0 L 206.6 420.2 L 183.2 423.4 L 204.5 426.5 L 178.8 429.7 L 202.8 432.9 L 173.4 436.0 L 200.6 439.2 L 213.48408321866143 437.09611207912803 L 224.04850003053062 437.09611207912803 L 236.9 439.2 L 264.1 436.0 L 234.7 432.9 L 258.7 429.7 L 233.0 426.5 L 254.3 423.4 L 231.0 420.2 L 249.3 417.0 L 229.1 413.9 L 244.5 410.7 L 227.5 407.5 L 240.6 404.3 L 225.9 401.2 L 236.6 398.0 L 223.7 394.8 L 231.2 391.7 L 221.5 388.5 L 225.6 385.3 L 219.6 382.2 L 220.9 379.0 Z" class="pine" />
<path d="M 343.3096621008702 437.97125327978307 L 341.2 379.1 L 342.5 382.4 L 337.0 385.6 L 340.8 388.8 L 333.2 392.0 L 339.3 395.2 L 328.9 398.4 L 337.6 401.6 L 324.2 404.8 L 335.7 408.0 L 318.6 411.2 L 333.4 414.4 L 314.7 417.6 L 331.9 420.9 L 310.1 424.1 L 330.0 427.3 L 305.0 430.5 L 328.0 433.7 L 300.8 436.9 L 326.3 440.1 L 337.96181810488645 437.97125327978307 L 348.6575060968539 437.97125327978307 L 360.3 440.1 L 385.8 436.9 L 358.6 433.7 L 381.6 430.5 L 356.6 427.3 L 376.5 424.1 L 354.7 420.9 L 371.9 417.6 L 353.2 414.4 L 368.0 411.2 L 351.0 408.0 L 362.4 404.8 L 349.1 401.6 L 357.7 398.4 L 347.4 395.2 L 353.4 392.0 L 345.8 388.8 L 349.6 385.6 L 344.2 382.4 L 345.4 379.1 Z" class="pine" />
<path d="M 246.96367126563592 439.5187551662751 L 244.8 379.4 L 246.1 382.7 L 239.5 386.0 L 244.0 389.3 L 235.7 392.5 L 242.5 395.8 L 230.2 399.1 L 240.3 402.4 L 224.7 405.6 L 238.1 408.9 L 220.7 412.2 L 236.4 415.5 L 215.9 418.8 L 234.5 422.0 L 211.7 425.3 L 232.9 428.6 L 205.8 431.9 L 230.5 435.1 L 200.8 438.4 L 228.5 441.7 L 241.49976462816528 439.5187551662751 L 252.42757790310657 439.5187551662751 L 265.4 441.7 L 293.1 438.4 L 263.4 435.1 L 288.2 431.9 L 261.1 428.6 L 282.2 425.3 L 259.4 422.0 L 278.0 418.8 L 257.5 415.5 L 273.3 412.2 L 255.9 408.9 L 269.2 405.6 L 253.7 402.4 L 263.7 399.1 L 251.5 395.8 L 258.2 392.5 L 249.9 389.3 L 254.4 386.0 L 247.8 382.7 L 249.1 379.4 Z" class="pine" />
<path d="M 114.56707101638469 487.8669077881328 L 110.9 387.9 L 113.1 393.3 L 102.9 398.8 L 109.9 404.2 L 93.6 409.7 L 106.2 415.1 L 84.8 420.6 L 102.7 426.1 L 74.9 431.5 L 98.7 437.0 L 66.4 442.4 L 95.3 447.9 L 56.5 453.3 L 91.4 458.8 L 46.9 464.2 L 87.5 469.7 L 38.3 475.1 L 84.1 480.6 L 29.4 486.0 L 80.5 491.5 L 105.47705293227473 487.8669077881328 L 123.65708910049464 487.8669077881328 L 148.6 491.5 L 199.8 486.0 L 145.1 480.6 L 190.8 475.1 L 141.6 469.7 L 182.2 464.2 L 137.8 458.8 L 172.6 453.3 L 133.9 447.9 L 162.8 442.4 L 130.4 437.0 L 154.2 431.5 L 126.5 426.1 L 144.3 420.6 L 122.9 415.1 L 135.5 409.7 L 119.2 404.2 L 126.2 398.8 L 116.0 393.3 L 118.2 387.9 Z" class="pine" />
<path d="M 428.5073516495641 463.8297560488663 L 425.6 383.7 L 427.3 388.0 L 417.9 392.4 L 424.3 396.8 L 410.6 401.2 L 421.3 405.5 L 404.1 409.9 L 418.8 414.3 L 398.3 418.6 L 416.4 423.0 L 392.4 427.4 L 414.1 431.8 L 385.5 436.1 L 411.3 440.5 L 378.2 444.9 L 408.4 449.3 L 371.5 453.6 L 405.7 458.0 L 364.6 462.4 L 402.9 466.7 L 421.2201199458991 463.8297560488663 L 435.7945833532291 463.8297560488663 L 454.1 466.7 L 492.4 462.4 L 451.3 458.0 L 485.5 453.6 L 448.6 449.3 L 478.9 444.9 L 445.7 440.5 L 471.5 436.1 L 442.9 431.8 L 464.6 427.4 L 440.6 423.0 L 458.7 418.6 L 438.3 414.3 L 452.9 409.9 L 435.7 405.5 L 446.4 401.2 L 432.8 396.8 L 439.1 392.4 L 429.7 388.0 L 431.4 383.7 Z" class="pine" />
<path d="M 21.841011086957337 442.8582520690522 L 19.6 380.0 L 20.9 383.4 L 14.9 386.9 L 19.1 390.3 L 10.2 393.7 L 17.2 397.1 L 5.0 400.6 L 15.1 404.0 L 0.7 407.4 L 13.4 410.9 L -3.9 414.3 L 11.6 417.7 L -9.5 421.1 L 9.3 424.6 L -15.1 428.0 L 7.1 431.4 L -19.2 434.9 L 5.4 438.3 L -24.2 441.7 L 3.4 445.1 L 16.126642181778422 442.8582520690522 L 27.555379992136253 442.8582520690522 L 40.2 445.1 L 67.8 441.7 L 38.3 438.3 L 62.9 434.9 L 36.6 431.4 L 58.8 428.0 L 34.4 424.6 L 53.1 421.1 L 32.1 417.7 L 47.6 414.3 L 30.3 410.9 L 43.0 407.4 L 28.6 404.0 L 38.7 400.6 L 26.5 397.1 L 33.5 393.7 L 24.6 390.3 L 28.7 386.9 L 22.8 383.4 L 24.1 380.0 Z" class="pine" />
<path d="M 204.5180864157042 436.5467511611528 L 202.4 378.9 L 203.7 382.0 L 197.9 385.2 L 201.9 388.3 L 192.3 391.5 L 199.6 394.6 L 187.4 397.8 L 197.7 400.9 L 182.3 404.1 L 195.6 407.2 L 176.8 410.3 L 193.4 413.5 L 171.5 416.6 L 191.3 419.8 L 167.1 422.9 L 189.5 426.1 L 163.4 429.2 L 188.1 432.4 L 159.0 435.5 L 186.3 438.6 L 199.27708007861773 436.5467511611528 L 209.75909275279068 436.5467511611528 L 222.7 438.6 L 250.0 435.5 L 221.0 432.4 L 245.6 429.2 L 219.5 426.1 L 242.0 422.9 L 217.7 419.8 L 237.5 416.6 L 215.6 413.5 L 232.2 410.3 L 213.4 407.2 L 226.7 404.1 L 211.4 400.9 L 221.6 397.8 L 209.4 394.6 L 216.7 391.5 L 207.2 388.3 L 211.2 385.2 L 205.4 382.0 L 206.6 378.9 Z" class="pine" />
<path d="M 440.8618933073165 496.2744270776085 L 437.0 389.3 L 439.3 395.2 L 428.5 401.0 L 435.9 406.8 L 418.8 412.7 L 432.0 418.5 L 409.9 424.3 L 428.5 430.2 L 400.8 436.0 L 424.8 441.8 L 393.1 447.7 L 421.8 453.5 L 385.4 459.3 L 418.7 465.2 L 376.9 471.0 L 415.3 476.8 L 370.0 482.7 L 412.5 488.5 L 361.9 494.3 L 409.3 500.2 L 431.14131127649586 496.2744270776085 L 450.58247533813716 496.2744270776085 L 472.4 500.2 L 519.8 494.3 L 469.2 488.5 L 511.7 482.7 L 466.4 476.8 L 504.8 471.0 L 463.0 465.2 L 496.3 459.3 L 460.0 453.5 L 488.6 447.7 L 456.9 441.8 L 481.0 436.0 L 453.2 430.2 L 471.8 424.3 L 449.7 418.5 L 462.9 412.7 L 445.8 406.8 L 453.2 401.0 L 442.4 395.2 L 444.8 389.3 Z" class="pine" />
<path d="M 198.33100133432401 433.2035784962807 L 196.3 378.3 L 197.5 381.3 L 191.9 384.3 L 195.8 387.3 L 188.2 390.3 L 194.3 393.3 L 183.4 396.3 L 192.4 399.3 L 179.9 402.3 L 191.0 405.3 L 175.6 408.3 L 189.2 411.2 L 171.0 414.2 L 187.4 417.2 L 167.4 420.2 L 186.0 423.2 L 162.7 426.2 L 184.1 429.2 L 158.9 432.2 L 182.6 435.2 L 193.34073294710296 433.2035784962807 L 203.32126972154506 433.2035784962807 L 214.1 435.2 L 237.8 432.2 L 212.6 429.2 L 234.0 426.2 L 210.7 423.2 L 229.2 420.2 L 209.3 417.2 L 225.7 414.2 L 207.4 411.2 L 221.1 408.3 L 205.7 405.3 L 216.8 402.3 L 204.3 399.3 L 213.2 396.3 L 202.4 393.3 L 208.5 390.3 L 200.9 387.3 L 204.8 384.3 L 199.1 381.3 L 200.3 378.3 Z" class="pine" />
<path d="M 7.153702083858878 450.32830913505114 L 4.6 381.3 L 6.1 385.1 L -0.3 388.8 L 4.2 392.6 L -5.5 396.4 L 2.1 400.1 L -11.8 403.9 L -0.4 407.7 L -17.1 411.4 L -2.6 415.2 L -23.4 419.0 L -5.1 422.7 L -29.9 426.5 L -7.7 430.2 L -34.9 434.0 L -9.7 437.8 L -39.5 441.5 L -11.5 445.3 L -44.0 449.1 L -13.3 452.8 L 0.8790788987300422 450.32830913505114 L 13.428325268987713 450.32830913505114 L 27.6 452.8 L 58.3 449.1 L 25.8 445.3 L 53.8 441.5 L 24.0 437.8 L 49.2 434.0 L 22.0 430.2 L 44.2 426.5 L 19.4 422.7 L 37.7 419.0 L 16.9 415.2 L 31.4 411.4 L 14.7 407.7 L 26.1 403.9 L 12.2 400.1 L 19.8 396.4 L 10.1 392.6 L 14.6 388.8 L 8.2 385.1 L 9.7 381.3 Z" class="pine" />
<path d="M 519.950227394973 447.99682749761473 L 517.5 380.9 L 519.0 384.6 L 511.7 388.2 L 516.6 391.9 L 505.5 395.5 L 514.2 399.2 L 499.6 402.9 L 511.8 406.5 L 493.5 410.2 L 509.4 413.8 L 486.9 417.5 L 506.7 421.2 L 482.2 424.8 L 504.8 428.5 L 477.8 432.1 L 503.1 435.8 L 473.2 439.5 L 501.3 443.1 L 468.6 446.8 L 499.4 450.4 L 513.8504653326519 447.99682749761473 L 526.0499894572941 447.99682749761473 L 540.5 450.4 L 571.3 446.8 L 538.6 443.1 L 566.7 439.5 L 536.8 435.8 L 562.1 432.1 L 535.1 428.5 L 557.7 424.8 L 533.2 421.2 L 553.0 417.5 L 530.5 413.8 L 546.4 410.2 L 528.1 406.5 L 540.3 402.9 L 525.7 399.2 L 534.4 395.5 L 523.3 391.9 L 528.2 388.2 L 520.9 384.6 L 522.4 380.9 Z" class="pine" />
<path d="M 284.5435742422103 437.4371632725203 L 282.4 379.1 L 283.7 382.2 L 277.2 385.4 L 281.6 388.6 L 271.9 391.8 L 279.5 395.0 L 267.8 398.2 L 277.8 401.3 L 262.8 404.5 L 275.8 407.7 L 257.5 410.9 L 273.7 414.1 L 253.5 417.3 L 272.1 420.5 L 248.1 423.6 L 270.0 426.8 L 242.3 430.0 L 267.7 433.2 L 238.4 436.4 L 266.1 439.6 L 279.23578699677125 437.4371632725203 L 289.85136148764934 437.4371632725203 L 303.0 439.6 L 330.7 436.4 L 301.4 433.2 L 326.8 430.0 L 299.1 426.8 L 321.0 423.6 L 296.9 420.5 L 315.5 417.3 L 295.4 414.1 L 311.6 410.9 L 293.2 407.7 L 306.3 404.5 L 291.2 401.3 L 301.3 398.2 L 289.6 395.0 L 297.2 391.8 L 287.5 388.6 L 291.9 385.4 L 285.4 382.2 L 286.7 379.1 Z" class="pine" />
<path d="M 148.4569119731354 474.1877829480327 L 145.2 385.5 L 147.2 390.3 L 136.5 395.2 L 143.7 400.0 L 129.6 404.8 L 140.9 409.7 L 121.6 414.5 L 137.7 419.4 L 115.7 424.2 L 135.4 429.0 L 107.9 433.9 L 132.2 438.7 L 100.2 443.5 L 129.1 448.4 L 94.2 453.2 L 126.8 458.1 L 86.1 462.9 L 123.5 467.7 L 77.7 472.6 L 120.2 477.4 L 140.39282825203293 474.1877829480327 L 156.52099569423785 474.1877829480327 L 176.8 477.4 L 219.2 472.6 L 173.4 467.7 L 210.8 462.9 L 170.2 458.1 L 202.7 453.2 L 167.8 448.4 L 196.7 443.5 L 164.7 438.7 L 189.1 433.9 L 161.5 429.0 L 181.2 424.2 L 159.2 419.4 L 175.3 414.5 L 156.0 409.7 L 167.3 404.8 L 153.2 400.0 L 160.4 395.2 L 149.7 390.3 L 151.7 385.5 Z" class="pine" />
</g>
  <g class="anim-day" fill="url(#tree-day)"><path d="M 338.6883498520871 446.4160028834077 L 336.3 380.6 L 337.7 384.2 L 331.4 387.8 L 335.8 391.4 L 325.1 395.0 L 333.3 398.6 L 319.2 402.2 L 330.9 405.7 L 314.3 409.3 L 328.9 412.9 L 309.4 416.5 L 327.0 420.1 L 304.2 423.7 L 324.9 427.3 L 299.1 430.9 L 322.8 434.5 L 294.2 438.0 L 320.9 441.6 L 289.7 445.2 L 319.1 448.8 L 332.7071496358315 446.4160028834077 L 344.66955006834263 446.4160028834077 L 358.3 448.8 L 387.7 445.2 L 356.5 441.6 L 383.2 438.0 L 354.5 434.5 L 378.3 430.9 L 352.5 427.3 L 373.1 423.7 L 350.4 420.1 L 368.0 416.5 L 348.4 412.9 L 363.0 409.3 L 346.5 405.7 L 358.1 402.2 L 344.1 398.6 L 352.2 395.0 L 341.6 391.4 L 346.0 387.8 L 339.6 384.2 L 341.1 380.6 Z" class="pine" />
<path d="M 487.7963821942988 474.1854356218186 L 484.6 385.5 L 486.5 390.3 L 476.0 395.2 L 483.1 400.0 L 468.4 404.8 L 480.0 409.7 L 461.8 414.5 L 477.4 419.4 L 454.4 424.2 L 474.4 429.0 L 448.7 433.9 L 472.2 438.7 L 442.1 443.5 L 469.5 448.4 L 435.1 453.2 L 466.7 458.1 L 427.6 462.9 L 463.7 467.7 L 419.8 472.6 L 460.6 477.4 L 479.7324745226624 474.1854356218186 L 495.8602898659352 474.1854356218186 L 515.0 477.4 L 555.8 472.6 L 511.9 467.7 L 548.0 462.9 L 508.9 458.1 L 540.5 453.2 L 506.1 448.4 L 533.5 443.5 L 503.4 438.7 L 526.9 433.9 L 501.2 429.0 L 521.2 424.2 L 498.2 419.4 L 513.8 414.5 L 495.6 409.7 L 507.2 404.8 L 492.5 400.0 L 499.6 395.2 L 489.1 390.3 L 491.0 385.5 Z" class="pine" />
<path d="M 218.76629162459602 437.09611207912803 L 216.7 379.0 L 217.9 382.2 L 212.0 385.3 L 216.0 388.5 L 206.4 391.7 L 213.8 394.8 L 201.0 398.0 L 211.6 401.2 L 196.9 404.3 L 210.0 407.5 L 193.0 410.7 L 208.5 413.9 L 188.3 417.0 L 206.6 420.2 L 183.2 423.4 L 204.5 426.5 L 178.8 429.7 L 202.8 432.9 L 173.4 436.0 L 200.6 439.2 L 213.48408321866143 437.09611207912803 L 224.04850003053062 437.09611207912803 L 236.9 439.2 L 264.1 436.0 L 234.7 432.9 L 258.7 429.7 L 233.0 426.5 L 254.3 423.4 L 231.0 420.2 L 249.3 417.0 L 229.1 413.9 L 244.5 410.7 L 227.5 407.5 L 240.6 404.3 L 225.9 401.2 L 236.6 398.0 L 223.7 394.8 L 231.2 391.7 L 221.5 388.5 L 225.6 385.3 L 219.6 382.2 L 220.9 379.0 Z" class="pine" />
<path d="M 343.3096621008702 437.97125327978307 L 341.2 379.1 L 342.5 382.4 L 337.0 385.6 L 340.8 388.8 L 333.2 392.0 L 339.3 395.2 L 328.9 398.4 L 337.6 401.6 L 324.2 404.8 L 335.7 408.0 L 318.6 411.2 L 333.4 414.4 L 314.7 417.6 L 331.9 420.9 L 310.1 424.1 L 330.0 427.3 L 305.0 430.5 L 328.0 433.7 L 300.8 436.9 L 326.3 440.1 L 337.96181810488645 437.97125327978307 L 348.6575060968539 437.97125327978307 L 360.3 440.1 L 385.8 436.9 L 358.6 433.7 L 381.6 430.5 L 356.6 427.3 L 376.5 424.1 L 354.7 420.9 L 371.9 417.6 L 353.2 414.4 L 368.0 411.2 L 351.0 408.0 L 362.4 404.8 L 349.1 401.6 L 357.7 398.4 L 347.4 395.2 L 353.4 392.0 L 345.8 388.8 L 349.6 385.6 L 344.2 382.4 L 345.4 379.1 Z" class="pine" />
<path d="M 246.96367126563592 439.5187551662751 L 244.8 379.4 L 246.1 382.7 L 239.5 386.0 L 244.0 389.3 L 235.7 392.5 L 242.5 395.8 L 230.2 399.1 L 240.3 402.4 L 224.7 405.6 L 238.1 408.9 L 220.7 412.2 L 236.4 415.5 L 215.9 418.8 L 234.5 422.0 L 211.7 425.3 L 232.9 428.6 L 205.8 431.9 L 230.5 435.1 L 200.8 438.4 L 228.5 441.7 L 241.49976462816528 439.5187551662751 L 252.42757790310657 439.5187551662751 L 265.4 441.7 L 293.1 438.4 L 263.4 435.1 L 288.2 431.9 L 261.1 428.6 L 282.2 425.3 L 259.4 422.0 L 278.0 418.8 L 257.5 415.5 L 273.3 412.2 L 255.9 408.9 L 269.2 405.6 L 253.7 402.4 L 263.7 399.1 L 251.5 395.8 L 258.2 392.5 L 249.9 389.3 L 254.4 386.0 L 247.8 382.7 L 249.1 379.4 Z" class="pine" />
<path d="M 114.56707101638469 487.8669077881328 L 110.9 387.9 L 113.1 393.3 L 102.9 398.8 L 109.9 404.2 L 93.6 409.7 L 106.2 415.1 L 84.8 420.6 L 102.7 426.1 L 74.9 431.5 L 98.7 437.0 L 66.4 442.4 L 95.3 447.9 L 56.5 453.3 L 91.4 458.8 L 46.9 464.2 L 87.5 469.7 L 38.3 475.1 L 84.1 480.6 L 29.4 486.0 L 80.5 491.5 L 105.47705293227473 487.8669077881328 L 123.65708910049464 487.8669077881328 L 148.6 491.5 L 199.8 486.0 L 145.1 480.6 L 190.8 475.1 L 141.6 469.7 L 182.2 464.2 L 137.8 458.8 L 172.6 453.3 L 133.9 447.9 L 162.8 442.4 L 130.4 437.0 L 154.2 431.5 L 126.5 426.1 L 144.3 420.6 L 122.9 415.1 L 135.5 409.7 L 119.2 404.2 L 126.2 398.8 L 116.0 393.3 L 118.2 387.9 Z" class="pine" />
<path d="M 428.5073516495641 463.8297560488663 L 425.6 383.7 L 427.3 388.0 L 417.9 392.4 L 424.3 396.8 L 410.6 401.2 L 421.3 405.5 L 404.1 409.9 L 418.8 414.3 L 398.3 418.6 L 416.4 423.0 L 392.4 427.4 L 414.1 431.8 L 385.5 436.1 L 411.3 440.5 L 378.2 444.9 L 408.4 449.3 L 371.5 453.6 L 405.7 458.0 L 364.6 462.4 L 402.9 466.7 L 421.2201199458991 463.8297560488663 L 435.7945833532291 463.8297560488663 L 454.1 466.7 L 492.4 462.4 L 451.3 458.0 L 485.5 453.6 L 448.6 449.3 L 478.9 444.9 L 445.7 440.5 L 471.5 436.1 L 442.9 431.8 L 464.6 427.4 L 440.6 423.0 L 458.7 418.6 L 438.3 414.3 L 452.9 409.9 L 435.7 405.5 L 446.4 401.2 L 432.8 396.8 L 439.1 392.4 L 429.7 388.0 L 431.4 383.7 Z" class="pine" />
<path d="M 21.841011086957337 442.8582520690522 L 19.6 380.0 L 20.9 383.4 L 14.9 386.9 L 19.1 390.3 L 10.2 393.7 L 17.2 397.1 L 5.0 400.6 L 15.1 404.0 L 0.7 407.4 L 13.4 410.9 L -3.9 414.3 L 11.6 417.7 L -9.5 421.1 L 9.3 424.6 L -15.1 428.0 L 7.1 431.4 L -19.2 434.9 L 5.4 438.3 L -24.2 441.7 L 3.4 445.1 L 16.126642181778422 442.8582520690522 L 27.555379992136253 442.8582520690522 L 40.2 445.1 L 67.8 441.7 L 38.3 438.3 L 62.9 434.9 L 36.6 431.4 L 58.8 428.0 L 34.4 424.6 L 53.1 421.1 L 32.1 417.7 L 47.6 414.3 L 30.3 410.9 L 43.0 407.4 L 28.6 404.0 L 38.7 400.6 L 26.5 397.1 L 33.5 393.7 L 24.6 390.3 L 28.7 386.9 L 22.8 383.4 L 24.1 380.0 Z" class="pine" />
<path d="M 204.5180864157042 436.5467511611528 L 202.4 378.9 L 203.7 382.0 L 197.9 385.2 L 201.9 388.3 L 192.3 391.5 L 199.6 394.6 L 187.4 397.8 L 197.7 400.9 L 182.3 404.1 L 195.6 407.2 L 176.8 410.3 L 193.4 413.5 L 171.5 416.6 L 191.3 419.8 L 167.1 422.9 L 189.5 426.1 L 163.4 429.2 L 188.1 432.4 L 159.0 435.5 L 186.3 438.6 L 199.27708007861773 436.5467511611528 L 209.75909275279068 436.5467511611528 L 222.7 438.6 L 250.0 435.5 L 221.0 432.4 L 245.6 429.2 L 219.5 426.1 L 242.0 422.9 L 217.7 419.8 L 237.5 416.6 L 215.6 413.5 L 232.2 410.3 L 213.4 407.2 L 226.7 404.1 L 211.4 400.9 L 221.6 397.8 L 209.4 394.6 L 216.7 391.5 L 207.2 388.3 L 211.2 385.2 L 205.4 382.0 L 206.6 378.9 Z" class="pine" />
<path d="M 440.8618933073165 496.2744270776085 L 437.0 389.3 L 439.3 395.2 L 428.5 401.0 L 435.9 406.8 L 418.8 412.7 L 432.0 418.5 L 409.9 424.3 L 428.5 430.2 L 400.8 436.0 L 424.8 441.8 L 393.1 447.7 L 421.8 453.5 L 385.4 459.3 L 418.7 465.2 L 376.9 471.0 L 415.3 476.8 L 370.0 482.7 L 412.5 488.5 L 361.9 494.3 L 409.3 500.2 L 431.14131127649586 496.2744270776085 L 450.58247533813716 496.2744270776085 L 472.4 500.2 L 519.8 494.3 L 469.2 488.5 L 511.7 482.7 L 466.4 476.8 L 504.8 471.0 L 463.0 465.2 L 496.3 459.3 L 460.0 453.5 L 488.6 447.7 L 456.9 441.8 L 481.0 436.0 L 453.2 430.2 L 471.8 424.3 L 449.7 418.5 L 462.9 412.7 L 445.8 406.8 L 453.2 401.0 L 442.4 395.2 L 444.8 389.3 Z" class="pine" />
<path d="M 198.33100133432401 433.2035784962807 L 196.3 378.3 L 197.5 381.3 L 191.9 384.3 L 195.8 387.3 L 188.2 390.3 L 194.3 393.3 L 183.4 396.3 L 192.4 399.3 L 179.9 402.3 L 191.0 405.3 L 175.6 408.3 L 189.2 411.2 L 171.0 414.2 L 187.4 417.2 L 167.4 420.2 L 186.0 423.2 L 162.7 426.2 L 184.1 429.2 L 158.9 432.2 L 182.6 435.2 L 193.34073294710296 433.2035784962807 L 203.32126972154506 433.2035784962807 L 214.1 435.2 L 237.8 432.2 L 212.6 429.2 L 234.0 426.2 L 210.7 423.2 L 229.2 420.2 L 209.3 417.2 L 225.7 414.2 L 207.4 411.2 L 221.1 408.3 L 205.7 405.3 L 216.8 402.3 L 204.3 399.3 L 213.2 396.3 L 202.4 393.3 L 208.5 390.3 L 200.9 387.3 L 204.8 384.3 L 199.1 381.3 L 200.3 378.3 Z" class="pine" />
<path d="M 7.153702083858878 450.32830913505114 L 4.6 381.3 L 6.1 385.1 L -0.3 388.8 L 4.2 392.6 L -5.5 396.4 L 2.1 400.1 L -11.8 403.9 L -0.4 407.7 L -17.1 411.4 L -2.6 415.2 L -23.4 419.0 L -5.1 422.7 L -29.9 426.5 L -7.7 430.2 L -34.9 434.0 L -9.7 437.8 L -39.5 441.5 L -11.5 445.3 L -44.0 449.1 L -13.3 452.8 L 0.8790788987300422 450.32830913505114 L 13.428325268987713 450.32830913505114 L 27.6 452.8 L 58.3 449.1 L 25.8 445.3 L 53.8 441.5 L 24.0 437.8 L 49.2 434.0 L 22.0 430.2 L 44.2 426.5 L 19.4 422.7 L 37.7 419.0 L 16.9 415.2 L 31.4 411.4 L 14.7 407.7 L 26.1 403.9 L 12.2 400.1 L 19.8 396.4 L 10.1 392.6 L 14.6 388.8 L 8.2 385.1 L 9.7 381.3 Z" class="pine" />
<path d="M 519.950227394973 447.99682749761473 L 517.5 380.9 L 519.0 384.6 L 511.7 388.2 L 516.6 391.9 L 505.5 395.5 L 514.2 399.2 L 499.6 402.9 L 511.8 406.5 L 493.5 410.2 L 509.4 413.8 L 486.9 417.5 L 506.7 421.2 L 482.2 424.8 L 504.8 428.5 L 477.8 432.1 L 503.1 435.8 L 473.2 439.5 L 501.3 443.1 L 468.6 446.8 L 499.4 450.4 L 513.8504653326519 447.99682749761473 L 526.0499894572941 447.99682749761473 L 540.5 450.4 L 571.3 446.8 L 538.6 443.1 L 566.7 439.5 L 536.8 435.8 L 562.1 432.1 L 535.1 428.5 L 557.7 424.8 L 533.2 421.2 L 553.0 417.5 L 530.5 413.8 L 546.4 410.2 L 528.1 406.5 L 540.3 402.9 L 525.7 399.2 L 534.4 395.5 L 523.3 391.9 L 528.2 388.2 L 520.9 384.6 L 522.4 380.9 Z" class="pine" />
<path d="M 284.5435742422103 437.4371632725203 L 282.4 379.1 L 283.7 382.2 L 277.2 385.4 L 281.6 388.6 L 271.9 391.8 L 279.5 395.0 L 267.8 398.2 L 277.8 401.3 L 262.8 404.5 L 275.8 407.7 L 257.5 410.9 L 273.7 414.1 L 253.5 417.3 L 272.1 420.5 L 248.1 423.6 L 270.0 426.8 L 242.3 430.0 L 267.7 433.2 L 238.4 436.4 L 266.1 439.6 L 279.23578699677125 437.4371632725203 L 289.85136148764934 437.4371632725203 L 303.0 439.6 L 330.7 436.4 L 301.4 433.2 L 326.8 430.0 L 299.1 426.8 L 321.0 423.6 L 296.9 420.5 L 315.5 417.3 L 295.4 414.1 L 311.6 410.9 L 293.2 407.7 L 306.3 404.5 L 291.2 401.3 L 301.3 398.2 L 289.6 395.0 L 297.2 391.8 L 287.5 388.6 L 291.9 385.4 L 285.4 382.2 L 286.7 379.1 Z" class="pine" />
<path d="M 148.4569119731354 474.1877829480327 L 145.2 385.5 L 147.2 390.3 L 136.5 395.2 L 143.7 400.0 L 129.6 404.8 L 140.9 409.7 L 121.6 414.5 L 137.7 419.4 L 115.7 424.2 L 135.4 429.0 L 107.9 433.9 L 132.2 438.7 L 100.2 443.5 L 129.1 448.4 L 94.2 453.2 L 126.8 458.1 L 86.1 462.9 L 123.5 467.7 L 77.7 472.6 L 120.2 477.4 L 140.39282825203293 474.1877829480327 L 156.52099569423785 474.1877829480327 L 176.8 477.4 L 219.2 472.6 L 173.4 467.7 L 210.8 462.9 L 170.2 458.1 L 202.7 453.2 L 167.8 448.4 L 196.7 443.5 L 164.7 438.7 L 189.1 433.9 L 161.5 429.0 L 181.2 424.2 L 159.2 419.4 L 175.3 414.5 L 156.0 409.7 L 167.3 404.8 L 153.2 400.0 L 160.4 395.2 L 149.7 390.3 L 151.7 385.5 Z" class="pine" />
</g>

  <!-- SNOW PARTICLES (Different layers and speeds) -->
  <g>
    <circle cx="380" cy="-87" r="1.5" class="snow-sm d2" /><circle cx="482" cy="-97" r="1.5" class="snow-sm d3" /><circle cx="226" cy="-18" r="1.5" class="snow-sm d1" /><circle cx="475" cy="-11" r="1.5" class="snow-sm d3" /><circle cx="418" cy="-86" r="1.5" class="snow-sm d2" /><circle cx="46" cy="-96" r="1.5" class="snow-sm d3" /><circle cx="504" cy="-86" r="1.5" class="snow-sm d1" /><circle cx="240" cy="-32" r="1.5" class="snow-sm d2" /><circle cx="397" cy="-42" r="1.5" class="snow-sm d3" /><circle cx="429" cy="-25" r="1.5" class="snow-sm d2" /><circle cx="424" cy="-17" r="1.5" class="snow-sm d1" /><circle cx="501" cy="-22" r="1.5" class="snow-sm d4" /><circle cx="286" cy="-96" r="1.5" class="snow-sm d3" /><circle cx="222" cy="-44" r="1.5" class="snow-sm d4" /><circle cx="241" cy="-54" r="1.5" class="snow-sm d1" /><circle cx="376" cy="-31" r="1.5" class="snow-sm d3" /><circle cx="62" cy="-50" r="1.5" class="snow-sm d3" /><circle cx="194" cy="-85" r="1.5" class="snow-sm d4" /><circle cx="93" cy="-16" r="1.5" class="snow-sm d2" /><circle cx="21" cy="-94" r="1.5" class="snow-sm d3" /><circle cx="249" cy="-84" r="1.5" class="snow-sm d2" /><circle cx="70" cy="-30" r="1.5" class="snow-sm d2" /><circle cx="221" cy="-71" r="1.5" class="snow-sm d3" /><circle cx="151" cy="-24" r="1.5" class="snow-sm d1" /><circle cx="283" cy="-82" r="1.5" class="snow-sm d2" /><circle cx="256" cy="-78" r="1.5" class="snow-sm d1" /><circle cx="26" cy="-84" r="1.5" class="snow-sm d1" /><circle cx="366" cy="-70" r="1.5" class="snow-sm d3" /><circle cx="16" cy="-78" r="1.5" class="snow-sm d3" /><circle cx="53" cy="-84" r="1.5" class="snow-sm d4" /><circle cx="538" cy="-86" r="1.5" class="snow-sm d1" /><circle cx="487" cy="-43" r="1.5" class="snow-sm d3" /><circle cx="525" cy="-25" r="1.5" class="snow-sm d1" /><circle cx="462" cy="-36" r="1.5" class="snow-sm d2" /><circle cx="44" cy="-16" r="1.5" class="snow-sm d3" /><circle cx="469" cy="-18" r="1.5" class="snow-sm d1" /><circle cx="62" cy="-39" r="1.5" class="snow-sm d4" /><circle cx="436" cy="-13" r="1.5" class="snow-sm d1" /><circle cx="502" cy="-44" r="1.5" class="snow-sm d1" /><circle cx="82" cy="-59" r="1.5" class="snow-sm d2" /><circle cx="67" cy="-84" r="1.5" class="snow-sm d3" /><circle cx="332" cy="-52" r="1.5" class="snow-sm d3" /><circle cx="464" cy="-36" r="1.5" class="snow-sm d4" /><circle cx="101" cy="-11" r="1.5" class="snow-sm d1" /><circle cx="220" cy="-45" r="1.5" class="snow-sm d4" /><circle cx="233" cy="-48" r="1.5" class="snow-sm d3" /><circle cx="464" cy="-49" r="1.5" class="snow-sm d4" /><circle cx="97" cy="-60" r="1.5" class="snow-sm d4" /><circle cx="320" cy="-15" r="1.5" class="snow-sm d3" /><circle cx="383" cy="-81" r="1.5" class="snow-sm d4" /><circle cx="68" cy="-89" r="1.5" class="snow-sm d1" /><circle cx="95" cy="-45" r="1.5" class="snow-sm d1" /><circle cx="381" cy="-84" r="1.5" class="snow-sm d1" /><circle cx="337" cy="-15" r="1.5" class="snow-sm d1" /><circle cx="420" cy="-55" r="1.5" class="snow-sm d4" /><circle cx="52" cy="-64" r="1.5" class="snow-sm d3" /><circle cx="360" cy="-87" r="1.5" class="snow-sm d2" /><circle cx="158" cy="-16" r="1.5" class="snow-sm d4" /><circle cx="229" cy="-87" r="1.5" class="snow-sm d3" /><circle cx="376" cy="-86" r="1.5" class="snow-sm d3" />
    <circle cx="231" cy="-46" r="2.5" class="snow d1" /><circle cx="273" cy="-97" r="2.5" class="snow d2" /><circle cx="279" cy="-11" r="2.5" class="snow d3" /><circle cx="347" cy="-56" r="2.5" class="snow d1" /><circle cx="185" cy="-82" r="2.5" class="snow d4" /><circle cx="71" cy="-82" r="2.5" class="snow d1" /><circle cx="93" cy="-33" r="2.5" class="snow d2" /><circle cx="385" cy="-47" r="2.5" class="snow d4" /><circle cx="349" cy="-80" r="2.5" class="snow d3" /><circle cx="319" cy="-59" r="2.5" class="snow d1" /><circle cx="53" cy="-81" r="2.5" class="snow d2" /><circle cx="50" cy="-14" r="2.5" class="snow d1" /><circle cx="278" cy="-44" r="2.5" class="snow d4" /><circle cx="497" cy="-23" r="2.5" class="snow d4" /><circle cx="424" cy="-66" r="2.5" class="snow d2" /><circle cx="524" cy="-86" r="2.5" class="snow d3" /><circle cx="440" cy="-86" r="2.5" class="snow d3" /><circle cx="498" cy="-33" r="2.5" class="snow d3" /><circle cx="46" cy="-72" r="2.5" class="snow d4" /><circle cx="56" cy="-100" r="2.5" class="snow d2" /><circle cx="308" cy="-73" r="2.5" class="snow d2" /><circle cx="261" cy="-63" r="2.5" class="snow d3" /><circle cx="122" cy="-100" r="2.5" class="snow d4" /><circle cx="440" cy="-78" r="2.5" class="snow d2" /><circle cx="389" cy="-32" r="2.5" class="snow d2" /><circle cx="512" cy="-29" r="2.5" class="snow d3" /><circle cx="73" cy="-50" r="2.5" class="snow d1" /><circle cx="446" cy="-98" r="2.5" class="snow d4" /><circle cx="79" cy="-60" r="2.5" class="snow d4" /><circle cx="414" cy="-10" r="2.5" class="snow d4" /><circle cx="296" cy="-86" r="2.5" class="snow d4" /><circle cx="21" cy="-59" r="2.5" class="snow d2" /><circle cx="471" cy="-12" r="2.5" class="snow d3" /><circle cx="90" cy="-45" r="2.5" class="snow d1" /><circle cx="249" cy="-45" r="2.5" class="snow d4" /><circle cx="536" cy="-90" r="2.5" class="snow d4" /><circle cx="317" cy="-57" r="2.5" class="snow d2" /><circle cx="341" cy="-79" r="2.5" class="snow d1" /><circle cx="522" cy="-19" r="2.5" class="snow d1" /><circle cx="543" cy="-35" r="2.5" class="snow d2" />
    <circle cx="357" cy="-56" r="4.0" class="snow-lg d2" /><circle cx="241" cy="-87" r="4.0" class="snow-lg d2" /><circle cx="262" cy="-75" r="4.0" class="snow-lg d2" /><circle cx="156" cy="-17" r="4.0" class="snow-lg d1" /><circle cx="181" cy="-20" r="4.0" class="snow-lg d4" /><circle cx="475" cy="-28" r="4.0" class="snow-lg d4" /><circle cx="330" cy="-20" r="4.0" class="snow-lg d3" /><circle cx="154" cy="-44" r="4.0" class="snow-lg d1" /><circle cx="480" cy="-44" r="4.0" class="snow-lg d3" /><circle cx="281" cy="-25" r="4.0" class="snow-lg d1" /><circle cx="360" cy="-36" r="4.0" class="snow-lg d1" /><circle cx="317" cy="-41" r="4.0" class="snow-lg d4" /><circle cx="38" cy="-93" r="4.0" class="snow-lg d3" /><circle cx="293" cy="-91" r="4.0" class="snow-lg d1" /><circle cx="519" cy="-51" r="4.0" class="snow-lg d4" /><circle cx="42" cy="-43" r="4.0" class="snow-lg d2" /><circle cx="329" cy="-23" r="4.0" class="snow-lg d4" /><circle cx="513" cy="-81" r="4.0" class="snow-lg d1" /><circle cx="461" cy="-87" r="4.0" class="snow-lg d3" /><circle cx="86" cy="-36" r="4.0" class="snow-lg d2" />
  </g>
</svg>